<?xml version="1.0" encoding="UTF-8" standalone="no"?>
<!-- Created with Inkscape (http://www.inkscape.org/) -->

<svg
   width="80mm"
   height="120mm"
   viewBox="0 0 80 120"
   version="1.1"
   id="svg1771"
   inkscape:version="1.1.2 (b8e25be8, 2022-02-05)"
   sodipodi:docname="dessin.svg"
   xmlns:inkscape="http://www.inkscape.org/namespaces/inkscape"
   xmlns:sodipodi="http://sodipodi.sourceforge.net/DTD/sodipodi-0.dtd"
   xmlns="http://www.w3.org/2000/svg"
   xmlns:svg="http://www.w3.org/2000/svg">
  <sodipodi:namedview
     id="namedview1773"
     pagecolor="#505050"
     bordercolor="#eeeeee"
     borderopacity="1"
     inkscape:pageshadow="0"
     inkscape:pageopacity="0"
     inkscape:pagecheckerboard="0"
     inkscape:document-units="mm"
     showgrid="false"
     inkscape:zoom="0.64052329"
     inkscape:cx="39.811199"
     inkscape:cy="308.34164"
     inkscape:window-width="1792"
     inkscape:window-height="1067"
     inkscape:window-x="0"
     inkscape:window-y="214"
     inkscape:window-maximized="0"
     inkscape:current-layer="g288"
     units="mm" />
  <defs
     id="defs1768">
    <clipPath
       clipPathUnits="userSpaceOnUse"
       id="clipPath292">
      <path
         d="M 0,1080 H 1920 V 0 H 0 Z"
         id="path290" />
    </clipPath>
    <clipPath
       clipPathUnits="userSpaceOnUse"
       id="clipPath404">
      <path
         d="m 1257.75,632.798 h 50.67 v -51.211 h -50.67 z"
         id="path402" />
    </clipPath>
    <clipPath
       clipPathUnits="userSpaceOnUse"
       id="clipPath420">
      <path
         d="m 1267.24,622.788 h 27.69 v -32.195 h -27.69 z"
         id="path418" />
    </clipPath>
    <clipPath
       clipPathUnits="userSpaceOnUse"
       id="clipPath436">
      <path
         d="m 1291.85,555.958 h 28.7 V 500.56 h -28.7 z"
         id="path434" />
    </clipPath>
    <clipPath
       clipPathUnits="userSpaceOnUse"
       id="clipPath452">
      <path
         d="m 1296.4,555.749 h 15.85 v -42.046 h -15.85 z"
         id="path450" />
    </clipPath>
    <clipPath
       clipPathUnits="userSpaceOnUse"
       id="clipPath468">
      <path
         d="m 1213.44,500.002 h 69.34 v -40.457 h -69.34 z"
         id="path466" />
    </clipPath>
    <clipPath
       clipPathUnits="userSpaceOnUse"
       id="clipPath484">
      <path
         d="m 1221.9,503.776 h 55.65 v -20.919 h -55.65 z"
         id="path482" />
    </clipPath>
    <clipPath
       clipPathUnits="userSpaceOnUse"
       id="clipPath500">
      <path
         d="m 1223.43,501.797 h 33.92 v -4.62 h -33.92 z"
         id="path498" />
    </clipPath>
    <clipPath
       clipPathUnits="userSpaceOnUse"
       id="clipPath516">
      <path
         d="m 1178.38,558.784 h 27.04 v -63.34 h -27.04 z"
         id="path514" />
    </clipPath>
    <clipPath
       clipPathUnits="userSpaceOnUse"
       id="clipPath532">
      <path
         d="m 1183.81,559.005 h 15.58 v -46.567 h -15.58 z"
         id="path530" />
    </clipPath>
    <clipPath
       clipPathUnits="userSpaceOnUse"
       id="clipPath548">
      <path
         d="m 1181.43,632.222 h 60.6 v -54.25 h -60.6 z"
         id="path546" />
    </clipPath>
    <clipPath
       clipPathUnits="userSpaceOnUse"
       id="clipPath564">
      <path
         d="m 1196.49,626.236 h 35.49 v -34.712 h -35.49 z"
         id="path562" />
    </clipPath>
    <clipPath
       clipPathUnits="userSpaceOnUse"
       id="clipPath580">
      <path
         d="m 1195.72,594.777 h 27.47 v -18.932 h -27.47 z"
         id="path578" />
    </clipPath>
    <clipPath
       clipPathUnits="userSpaceOnUse"
       id="clipPath596">
      <path
         d="m 1213.24,587.542 h 54.48 v -70.815 h -54.48 z"
         id="path594" />
    </clipPath>
    <clipPath
       clipPathUnits="userSpaceOnUse"
       id="clipPath612">
      <path
         d="m 1217.43,575.928 h 18.11 v -14.241 h -18.11 z"
         id="path610" />
    </clipPath>
    <clipPath
       clipPathUnits="userSpaceOnUse"
       id="clipPath686">
      <path
         d="m 1194.39,556.573 h 16.22 v -38.948 h -16.22 z"
         id="path684" />
    </clipPath>
    <clipPath
       clipPathUnits="userSpaceOnUse"
       id="clipPath702">
      <path
         d="m 1267.72,556.486 h 15.55 v -38.773 h -15.55 z"
         id="path700" />
    </clipPath>
    <clipPath
       clipPathUnits="userSpaceOnUse"
       id="clipPath718">
      <path
         d="m 1259.18,609.262 h 22.46 v -21.727 h -22.46 z"
         id="path716" />
    </clipPath>
    <clipPath
       clipPathUnits="userSpaceOnUse"
       id="clipPath734">
      <path
         d="m 1261.75,501.221 h 8.93 v -3.414 h -8.93 z"
         id="path732" />
    </clipPath>
  </defs>
  <g
     inkscape:label="Calque 1"
     inkscape:groupmode="layer"
     id="layer1">
    <g
       id="g286"
       transform="matrix(0.35277777,0,0,-0.35277777,-484.40143,333.94826)">
      <g
         id="g288"
         clip-path="url(#clipPath292)">
        <g
           id="g294"
           transform="matrix(0.9999957,0,0,1,1453.5384,707.60567)">
          <path
             d="m 0,0 -15.485,-23.143 c -1.626,-2.429 -5.204,-2.367 -6.772,0.102 -14.128,22.258 -22.22,50.473 -21.682,77.845 0.05,2.55 2.452,4.402 4.937,3.832 l 21.079,-4.831 c 1.382,-0.317 2.496,-1.336 2.934,-2.684 L 0.483,3.486 C 0.865,2.312 0.687,1.026 0,0"
             style="fill:#8ef59c;fill-opacity:1;fill-rule:nonzero;stroke:none"
             id="path296" />
        </g>
        <g
           id="g298"
           transform="matrix(0.9999957,0,0,1,1437.475,766.13937)">
          <path
             d="m 0,0 -23.345,5.352 c -2.124,0.487 -3.497,2.579 -3.059,4.713 6.723,32.819 34.527,58.041 68.587,60.852 2.331,0.192 4.319,-1.686 4.319,-4.025 V 34.134 c 0,-1.29 -0.618,-2.503 -1.661,-3.261 L 3.27,0.668 C 2.327,-0.017 1.135,-0.261 0,0"
             style="fill:#8ef59c;fill-opacity:1;fill-rule:nonzero;stroke:none"
             id="path300" />
        </g>
        <g
           id="g302"
           transform="matrix(0.9999957,0,0,1,1528.4004,759.28927)">
          <path
             d="m 0,0 -14.73,-45.35 c -0.544,-1.66 -2.083,-2.787 -3.834,-2.787 h -47.694 c -1.741,0 -3.291,1.127 -3.834,2.787 L -74.489,-31.826 -84.822,0 c -0.544,1.66 0.05,3.481 1.459,4.507 l 38.587,28.033 c 1.409,1.026 3.321,1.026 4.729,0 L -14.751,14.157 -1.872,4.809 -1.459,4.507 C -0.051,3.481 0.543,1.66 0,0"
             style="fill:#8ef59c;fill-opacity:1;fill-rule:nonzero;stroke:none"
             id="path304" />
        </g>
        <g
           id="g306"
           transform="matrix(0.9999957,0,0,1,1514.4883,704.34887)">
          <path
             d="m 0,0 17.608,-27.27 c 0.958,-1.483 0.831,-3.415 -0.292,-4.777 -27.662,-33.562 -64.569,-33.271 -92.049,0.508 -1.123,1.381 -1.229,3.333 -0.239,4.812 l 17.927,26.783 c 0.748,1.117 2.005,1.788 3.35,1.788 H -3.387 C -2.018,1.844 -0.742,1.149 0,0"
             style="fill:#8ef59c;fill-opacity:1;fill-rule:nonzero;stroke:none"
             id="path308" />
        </g>
        <g
           id="g310"
           transform="matrix(0.9999957,0,0,1,1532.0088,766.60037)">
          <path
             d="m 0,0 -41.183,29.914 c -1.044,0.758 -1.662,1.971 -1.662,3.261 v 33.396 c 0,2.36 2.022,4.246 4.37,4.02 C -4.632,67.332 22.835,41.919 29.199,9.071 29.613,6.937 28.226,4.863 26.104,4.393 L 3.241,-0.674 C 2.113,-0.924 0.934,-0.679 0,0"
             style="fill:#8ef59c;fill-opacity:1;fill-rule:nonzero;stroke:none"
             id="path312" />
        </g>
        <g
           id="g314"
           transform="matrix(0.9999957,0,0,1,1562.4597,760.83957)">
          <path
             d="m 0,0 c -0.025,-27.213 -7.936,-54.792 -22.058,-76.772 -1.594,-2.48 -5.201,-2.52 -6.801,-0.042 l -15.218,23.556 c -0.658,1.018 -0.823,2.279 -0.448,3.432 l 15.297,47.072 c 0.442,1.357 1.568,2.38 2.961,2.689 L -4.913,4.672 C -2.416,5.226 -0.029,3.345 -0.004,0.788 -0.001,0.525 0,0.263 0,0"
             style="fill:#8ef59c;fill-opacity:1;fill-rule:nonzero;stroke:none"
             id="path316" />
        </g>
        <g
           id="g318"
           transform="matrix(0.9999957,0,0,1,1539.161,827.79907)">
          <path
             d="m 0,0 4.415,5.916 c 1.344,1.8 0.968,4.367 -0.858,5.676 -5.273,3.78 -10.941,7.043 -16.931,9.714 -2.159,0.962 -4.679,-0.175 -5.432,-2.415 l -2.334,-6.943 c -0.655,-1.949 0.269,-4.07 2.134,-4.936 4.73,-2.193 9.212,-4.828 13.4,-7.849 C -3.813,-2.131 -1.323,-1.772 0,0"
             style="fill:#8ef59c;fill-opacity:1;fill-rule:nonzero;stroke:none"
             id="path320" />
        </g>
        <g
           id="g322"
           transform="matrix(0.9999957,0,0,1,1438.2396,826.82787)">
          <path
             d="m 0,0 c 4.167,3.025 8.629,5.667 13.336,7.871 1.858,0.87 2.774,2.985 2.121,4.93 l -2.2,6.542 C 12.498,21.603 9.943,22.736 7.78,21.737 1.891,19.015 -3.678,15.719 -8.854,11.918 -10.65,10.599 -11.009,8.055 -9.676,6.269 L -5.616,0.83 C -4.291,-0.946 -1.793,-1.302 0,0"
             style="fill:#8ef59c;fill-opacity:1;fill-rule:nonzero;stroke:none"
             id="path324" />
        </g>
        <g
           id="g326"
           transform="matrix(0.9999957,0,0,1,1560.2175,803.48707)">
          <path
             d="m 0,0 6.291,4.08 c 1.863,1.208 2.407,3.703 1.203,5.569 -4.137,6.413 -9.011,12.306 -14.505,17.555 -1.742,1.665 -4.559,1.406 -6.001,-0.525 l -4.477,-5.999 c -1.207,-1.618 -1.023,-3.869 0.416,-5.286 C -12.747,11.128 -8.899,6.38 -5.607,1.243 -4.393,-0.651 -1.889,-1.225 0,0"
             style="fill:#8ef59c;fill-opacity:1;fill-rule:nonzero;stroke:none"
             id="path328" />
        </g>
        <g
           id="g330"
           transform="matrix(0.9999957,0,0,1,1570.7097,773.81177)">
          <path
             d="m 0,0 7.35,1.638 c 2.143,0.478 3.519,2.586 3.082,4.738 -1.49,7.327 -3.808,14.352 -6.853,20.974 -1.021,2.219 -3.796,2.992 -5.845,1.663 L -8.654,24.871 C -10.32,23.79 -10.938,21.663 -10.136,19.847 -7.8,14.561 -6.008,8.984 -4.836,3.184 -4.385,0.953 -2.222,-0.495 0,0"
             style="fill:#8ef59c;fill-opacity:1;fill-rule:nonzero;stroke:none"
             id="path332" />
        </g>
        <g
           id="g334"
           transform="matrix(0.9999957,0,0,1,1492.2344,842.07887)">
          <path
             d="m 0,0 c 5.577,-0.424 10.997,-1.412 16.207,-2.907 2.078,-0.597 4.256,0.529 4.944,2.578 l 2.3,6.839 c 0.73,2.171 -0.487,4.532 -2.689,5.159 -6.489,1.848 -13.256,3.034 -20.224,3.48 -2.314,0.149 -4.267,-1.711 -4.267,-4.029 V 4.01 C -3.729,1.902 -2.103,0.16 0,0"
             style="fill:#8ef59c;fill-opacity:1;fill-rule:nonzero;stroke:none"
             id="path336" />
        </g>
        <g
           id="g338"
           transform="matrix(0.9999957,0,0,1,1430.0648,677.28437)">
          <path
             d="m 0,0 c -3.149,4.512 -6.039,9.293 -8.651,14.287 -1.177,2.249 -4.104,2.876 -6.086,1.291 l -5.232,-4.184 C -21.491,10.177 -21.915,8.049 -21,6.327 c 3.177,-5.98 6.694,-11.645 10.515,-16.913 1.663,-2.294 5.09,-2.249 6.651,0.115 l 3.923,5.946 C 0.995,-3.152 0.958,-1.37 0.016,-0.022 0.011,-0.015 0.005,-0.007 0,0"
             style="fill:#8ef59c;fill-opacity:1;fill-rule:nonzero;stroke:none"
             id="path340" />
        </g>
        <g
           id="g342"
           transform="matrix(0.9999957,0,0,1,1550.4745,691.38887)">
          <path
             d="m 0,0 c -2.631,-5.018 -5.524,-9.798 -8.738,-14.367 -0.948,-1.348 -0.95,-3.145 -0.042,-4.52 l 4.371,-6.624 c 1.532,-2.321 4.924,-2.448 6.579,-0.212 3.952,5.338 7.591,11.097 10.873,17.193 0.929,1.723 0.51,3.864 -1.02,5.088 L 6.095,1.299 C 4.107,2.888 1.181,2.252 0,0"
             style="fill:#8ef59c;fill-opacity:1;fill-rule:nonzero;stroke:none"
             id="path344" />
        </g>
        <g
           id="g346"
           transform="matrix(0.9999957,0,0,1,1404.4878,760.83957)">
          <path
             d="M 0,0 C 0,1.189 0.031,2.372 0.088,3.548 0.183,5.521 -1.131,7.285 -3.06,7.714 l -6.471,1.443 c -2.414,0.538 -4.768,-1.203 -4.903,-3.673 -0.25,-4.568 -0.181,-9.19 0.063,-13.767 0.12,-2.241 2.058,-3.948 4.298,-3.798 l 6.516,0.436 c 2.194,0.147 3.864,2.025 3.75,4.221 C 0.065,-4.948 0,-2.472 0,0"
             style="fill:#8ef59c;fill-opacity:1;fill-rule:nonzero;stroke:none"
             id="path348" />
        </g>
        <g
           id="g350"
           transform="matrix(0.9999957,0,0,1,1409.8579,798.53047)">
          <path
             d="m 0,0 -5.618,3.643 c -2.059,1.335 -4.848,0.548 -5.856,-1.689 -2.933,-6.512 -5.166,-13.407 -6.602,-20.589 -0.43,-2.148 0.946,-4.247 3.085,-4.724 l 6.389,-1.424 c 2.224,-0.495 4.388,0.954 4.837,3.188 1.163,5.779 2.941,11.338 5.259,16.607 C 2.288,-3.183 1.653,-1.073 0,0"
             style="fill:#8ef59c;fill-opacity:1;fill-rule:nonzero;stroke:none"
             id="path352" />
        </g>
        <g
           id="g354"
           transform="matrix(0.9999957,0,0,1,1417.2856,804.59987)">
          <path
             d="m 0,0 c 3.269,5.122 7.088,9.86 11.383,14.12 1.43,1.419 1.612,3.665 0.407,5.279 L 7.736,24.83 C 6.285,26.774 3.441,27.022 1.706,25.326 -3.644,20.1 -8.39,14.258 -12.416,7.914 -13.6,6.049 -13.05,3.573 -11.196,2.371 L -5.611,-1.25 C -3.721,-2.477 -1.213,-1.9 0,0"
             style="fill:#8ef59c;fill-opacity:1;fill-rule:nonzero;stroke:none"
             id="path356" />
        </g>
        <g
           id="g358"
           transform="matrix(0.9999957,0,0,1,1566.4295,724.06277)">
          <path
             d="m 0,0 7.093,-2.731 c 2.296,-0.885 4.843,0.475 5.388,2.875 1.116,4.897 2.018,9.869 2.695,14.886 0.312,2.321 -1.394,4.427 -3.73,4.583 L 3.924,20.117 C 1.823,20.257 -0.043,18.76 -0.33,16.674 -0.889,12.619 -1.614,8.586 -2.493,4.593 -2.919,2.66 -1.846,0.711 0,0"
             style="fill:#8ef59c;fill-opacity:1;fill-rule:nonzero;stroke:none"
             id="path360" />
        </g>
        <g
           id="g362"
           transform="matrix(0.9999957,0,0,1,1578.0095,770.28347)">
          <path
             d="m 0,0 -7.473,-1.665 c -1.91,-0.426 -3.232,-2.162 -3.141,-4.117 0.17,-3.681 0.098,-7.386 -0.099,-11.078 -0.118,-2.206 1.547,-4.101 3.752,-4.249 l 7.517,-0.503 c 2.239,-0.15 4.177,1.556 4.298,3.798 0.253,4.704 0.321,9.458 0.048,14.151 C 4.76,-1.197 2.41,0.537 0,0"
             style="fill:#8ef59c;fill-opacity:1;fill-rule:nonzero;stroke:none"
             id="path364" />
        </g>
        <g
           id="g366"
           transform="matrix(0.9999957,0,0,1,1560.6785,716.27567)">
          <path
             d="m 0,0 c -1.362,-4.425 -2.917,-8.771 -4.663,-13.007 -0.683,-1.656 -0.164,-3.565 1.235,-4.684 l 6.041,-4.831 c 2.075,-1.66 5.172,-0.9 6.222,1.541 2.204,5.126 4.17,10.423 5.873,15.853 0.639,2.039 -0.399,4.228 -2.394,4.996 L 5.293,2.572 C 3.116,3.411 0.687,2.23 0,0"
             style="fill:#8ef59c;fill-opacity:1;fill-rule:nonzero;stroke:none"
             id="path368" />
        </g>
        <g
           id="g370"
           transform="matrix(0.9999957,0,0,1,1533.5195,666.63017)">
          <path
             d="m 0,0 c -4.661,-5.219 -9.573,-9.651 -14.664,-13.253 -1.382,-0.977 -1.99,-2.719 -1.537,-4.35 l 2.053,-7.387 c 0.732,-2.634 3.819,-3.794 6.104,-2.294 6.445,4.232 12.522,9.439 18.136,15.443 1.282,1.371 1.475,3.437 0.442,5.003 L 6.345,-0.489 C 4.896,1.705 1.752,1.961 0,0"
             style="fill:#8ef59c;fill-opacity:1;fill-rule:nonzero;stroke:none"
             id="path372" />
        </g>
        <g
           id="g374"
           transform="matrix(0.9999957,0,0,1,1452.885,653.54617)">
          <path
             d="m 0,0 c -5.065,3.614 -9.953,8.053 -14.589,13.271 -1.749,1.969 -4.901,1.718 -6.352,-0.48 L -24.717,7.07 c -1.024,-1.553 -0.843,-3.6 0.414,-4.972 5.5,-6.003 11.453,-11.242 17.773,-15.537 2.282,-1.551 5.415,-0.398 6.153,2.26 L 1.524,-4.34 C 1.976,-2.715 1.373,-0.979 0,0"
             style="fill:#8ef59c;fill-opacity:1;fill-rule:nonzero;stroke:none"
             id="path376" />
        </g>
        <g
           id="g378"
           transform="matrix(0.9999957,0,0,1,1483.9269,631.42897)">
          <path
             d="m 0,0 -0.026,6.979 c -0.008,2.039 -1.516,3.794 -3.542,4.026 -5.566,0.638 -11.078,2.216 -16.459,4.683 -2.256,1.035 -4.901,-0.185 -5.566,-2.576 l -1.842,-6.627 c -0.531,-1.912 0.405,-3.939 2.214,-4.755 6.628,-2.987 13.557,-4.959 20.7,-5.751 C -2.109,-4.288 0.009,-2.427 0,0"
             style="fill:#8ef59c;fill-opacity:1;fill-rule:nonzero;stroke:none"
             id="path380" />
        </g>
        <g
           id="g382"
           transform="matrix(0.9999957,0,0,1,1408.022,728.76097)">
          <path
             d="m 0,0 c -0.871,3.965 -1.59,7.969 -2.144,11.995 -0.287,2.086 -2.153,3.585 -4.254,3.443 l -6.528,-0.437 c -2.334,-0.156 -4.04,-2.259 -3.729,-4.578 0.656,-4.888 1.525,-9.732 2.597,-14.506 0.54,-2.405 3.091,-3.771 5.392,-2.885 l 6.172,2.377 C -0.648,-3.88 0.424,-1.932 0,0"
             style="fill:#8ef59c;fill-opacity:1;fill-rule:nonzero;stroke:none"
             id="path384" />
        </g>
        <g
           id="g386"
           transform="matrix(0.9999957,0,0,1,1405.978,718.95237)">
          <path
             d="m 0,0 -6.124,-2.359 c -1.989,-0.766 -3.029,-2.947 -2.397,-4.982 1.647,-5.31 3.543,-10.498 5.671,-15.521 1.039,-2.455 4.148,-3.225 6.23,-1.561 l 5.306,4.243 c 1.393,1.115 1.911,3.016 1.233,4.666 C 8.188,-11.299 6.646,-6.976 5.294,-2.575 4.608,-0.344 2.179,0.839 0,0"
             style="fill:#8ef59c;fill-opacity:1;fill-rule:nonzero;stroke:none"
             id="path388" />
        </g>
        <g
           id="g390"
           transform="matrix(0.9999957,0,0,1,1507.8653,647.01587)">
          <path
             d="m 0,0 c -5.034,-2.283 -10.183,-3.784 -15.381,-4.47 -2.029,-0.267 -3.561,-1.965 -3.554,-4.011 l 0.028,-7.147 c 0.009,-2.407 2.111,-4.254 4.505,-3.993 6.746,0.737 13.3,2.531 19.592,5.235 1.846,0.793 2.808,2.845 2.27,4.78 L 5.513,-2.601 C 4.854,-0.231 2.238,1.016 0,0"
             style="fill:#8ef59c;fill-opacity:1;fill-rule:nonzero;stroke:none"
             id="path392" />
        </g>
        <g
           id="g394"
           transform="matrix(0.9999957,0,0,1,1463.2747,839.09547)">
          <path
             d="m 0,0 c 5.291,1.538 10.801,2.552 16.472,2.983 2.101,0.161 3.727,1.903 3.727,4.011 v 7.038 c 0,2.336 -1.981,4.202 -4.31,4.028 C 8.847,17.531 2.016,16.247 -4.524,14.29 -6.699,13.638 -7.888,11.296 -7.165,9.145 l 2.209,-6.57 C -4.266,0.521 -2.08,-0.605 0,0"
             style="fill:#8ef59c;fill-opacity:1;fill-rule:nonzero;stroke:none"
             id="path396" />
        </g>
        <g
           id="g398"
           transform="matrix(0.9999957,0,0,1,236.3376,199.06567)">
          <g
             id="g400" />
          <g
             id="g412">
            <g
               clip-path="url(#clipPath404)"
               opacity="0.5"
               id="g410">
              <g
                 transform="translate(1264.9951,632.499)"
                 id="g408">
                <path
                   d="m 0,0 c -2.872,1.053 -5.986,-0.782 -6.45,-3.806 -1.153,-7.504 -1.988,-20.673 4.505,-27.945 7.023,-7.867 28.538,-15.525 39.067,-18.923 3.202,-1.034 6.472,1.439 6.3,4.8 C 42.872,-35.067 36.821,-13.507 0,0"
                   style="fill:#6be873;fill-opacity:1;fill-rule:nonzero;stroke:none"
                   id="path406" />
              </g>
            </g>
          </g>
        </g>
        <g
           id="g414"
           transform="matrix(0.9999957,0,0,1,236.3376,199.06567)">
          <g
             id="g416" />
          <g
             id="g428">
            <g
               clip-path="url(#clipPath420)"
               opacity="0.5"
               id="g426">
              <g
                 transform="translate(1267.4219,617.5854)"
                 id="g424">
                <path
                   d="m 0,0 c 2.276,-7.425 7.851,-18.659 21.43,-26.443 3.059,-1.754 6.759,0.955 5.97,4.392 C 24.147,-7.878 19.452,-1.353 5.509,4.845 2.36,6.245 -1.011,3.294 0,0"
                   style="fill:#8ef59c;fill-opacity:1;fill-rule:nonzero;stroke:none"
                   id="path422" />
              </g>
            </g>
          </g>
        </g>
        <g
           id="g430"
           transform="matrix(0.9999957,0,0,1,236.3376,199.06567)">
          <g
             id="g432" />
          <g
             id="g444">
            <g
               clip-path="url(#clipPath436)"
               opacity="0.5"
               id="g442">
              <g
                 transform="translate(1320.4785,549.3403)"
                 id="g440">
                <path
                   d="m 0,0 c 0.689,4.308 -3.539,7.78 -7.625,6.25 -6.966,-2.61 -16.06,-7.521 -19.058,-15.969 -3.576,-10.076 -1.843,-25.225 2.121,-35.421 1.83,-4.703 8.429,-4.895 10.531,-0.308 C -5.255,-26.296 -1.542,-9.63 0,0"
                   style="fill:#67e96f;fill-opacity:1;fill-rule:nonzero;stroke:none"
                   id="path438" />
              </g>
            </g>
          </g>
        </g>
        <g
           id="g446"
           transform="matrix(0.9999957,0,0,1,236.3376,199.06567)">
          <g
             id="g448" />
          <g
             id="g460">
            <g
               clip-path="url(#clipPath452)"
               opacity="0.5"
               id="g458">
              <g
                 transform="translate(1312.2344,552.8184)"
                 id="g456">
                <path
                   d="m 0,0 c -0.077,3.014 -4.061,4.046 -5.605,1.457 -4.163,-6.98 -10.124,-18.577 -10.223,-27.881 -0.042,-4.012 0.075,-7.268 0.265,-9.879 0.227,-3.09 4.385,-3.891 5.729,-1.1 2.911,6.046 6.563,14.83 8.409,23.995 C -0.239,-7.523 0.081,-3.17 0,0"
                   style="fill:#90f99d;fill-opacity:1;fill-rule:nonzero;stroke:none"
                   id="path454" />
              </g>
            </g>
          </g>
        </g>
        <g
           id="g462"
           transform="matrix(0.9999957,0,0,1,236.3376,199.06567)">
          <g
             id="g464" />
          <g
             id="g476">
            <g
               clip-path="url(#clipPath468)"
               opacity="0.5"
               id="g474">
              <g
                 transform="translate(1216.0029,471.2969)"
                 id="g472">
                <path
                   d="m 0,0 c -2.894,2.28 -3.424,6.482 -1.135,9.369 5.709,7.198 17.58,19.336 32.711,19.336 15.008,0 27.443,-11.941 33.589,-19.159 C 67.675,6.598 67.206,2.14 64.087,-0.153 53.405,-8.004 27.718,-21.845 0,0"
                   style="fill:#67e96f;fill-opacity:1;fill-rule:nonzero;stroke:none"
                   id="path470" />
              </g>
            </g>
          </g>
        </g>
        <g
           id="g478"
           transform="matrix(0.9999957,0,0,1,236.3376,199.06567)">
          <g
             id="g480" />
          <g
             id="g492">
            <g
               clip-path="url(#clipPath484)"
               opacity="0.5"
               id="g490">
              <g
                 transform="translate(1225.584,486.1328)"
                 id="g488">
                <path
                   d="m 0,0 c -3.812,1.053 -4.977,5.965 -2.007,8.574 4.81,4.225 13.109,9.069 25.879,9.069 12.865,0 21.447,-5.329 26.461,-9.932 3.012,-2.765 1.632,-7.782 -2.369,-8.619 C 37.852,-3.023 19.349,-5.345 0,0"
                   style="fill:#70e493;fill-opacity:1;fill-rule:nonzero;stroke:none"
                   id="path486" />
              </g>
            </g>
          </g>
        </g>
        <g
           id="g494"
           transform="matrix(0.9999957,0,0,1,236.3376,199.06567)">
          <g
             id="g496" />
          <g
             id="g508">
            <g
               clip-path="url(#clipPath500)"
               opacity="0.350006"
               id="g506">
              <g
                 transform="translate(1228.0527,501.7949)"
                 id="g504">
                <path
                   d="m 0,0 c -1.426,0.077 -5.565,-1.698 -4.434,-3.302 1.132,-1.603 2.359,-0.943 13.395,-0.943 11.037,0 16.508,-0.741 17.923,-0.135 1.415,0.607 3.773,2.022 1.415,3.437 C 25.94,0.472 8.985,-0.489 0,0"
                   style="fill:#f7fdf3;fill-opacity:1;fill-rule:nonzero;stroke:none"
                   id="path502" />
              </g>
            </g>
          </g>
        </g>
        <g
           id="g510"
           transform="matrix(0.9999957,0,0,1,236.3376,199.06567)">
          <g
             id="g512" />
          <g
             id="g524">
            <g
               clip-path="url(#clipPath516)"
               opacity="0.5"
               id="g522">
              <g
                 transform="translate(1178.3848,554.9019)"
                 id="g520">
                <path
                   d="m 0,0 c -0.112,2.829 2.83,4.742 5.371,3.493 5.515,-2.711 13.882,-8.961 18.75,-22.924 5.106,-14.644 2.431,-29.177 0.035,-37.338 -0.888,-3.026 -4.888,-3.667 -6.648,-1.049 C 11.503,-48.886 1.161,-29.416 0,0"
                   style="fill:#67e96f;fill-opacity:1;fill-rule:nonzero;stroke:none"
                   id="path518" />
              </g>
            </g>
          </g>
        </g>
        <g
           id="g526"
           transform="matrix(0.9999957,0,0,1,236.3376,199.06567)">
          <g
             id="g528" />
          <g
             id="g540">
            <g
               clip-path="url(#clipPath532)"
               opacity="0.5"
               id="g538">
              <g
                 transform="translate(1189.0459,558.3081)"
                 id="g536">
                <path
                   d="m 0,0 c -2.226,1.743 -5.469,0 -5.225,-2.816 0.747,-8.623 2.516,-24.292 6.028,-33.498 5.031,-13.187 8.167,-13.171 9.307,2.838 C 11.077,-19.896 9.219,-7.219 0,0"
                   style="fill:#8ff29f;fill-opacity:1;fill-rule:nonzero;stroke:none"
                   id="path534" />
              </g>
            </g>
          </g>
        </g>
        <g
           id="g542"
           transform="matrix(0.9999957,0,0,1,236.3376,199.06567)">
          <g
             id="g544" />
          <g
             id="g556">
            <g
               clip-path="url(#clipPath548)"
               opacity="0.5"
               id="g554">
              <g
                 transform="translate(1182.2578,587.3091)"
                 id="g552">
                <path
                   d="M 0,0 C -2.239,-3.914 0.311,-8.833 4.805,-9.199 12.773,-9.847 25.632,-8.524 41.154,1.696 60.47,14.414 60.621,31.5 59.303,39.778 58.81,42.876 56.028,45.108 52.898,44.899 43.289,44.258 21.81,38.11 0,0"
                   style="fill:#64e878;fill-opacity:1;fill-rule:nonzero;stroke:none"
                   id="path550" />
              </g>
            </g>
          </g>
        </g>
        <g
           id="g558"
           transform="matrix(0.9999957,0,0,1,236.3376,199.06567)">
          <g
             id="g560" />
          <g
             id="g572">
            <g
               clip-path="url(#clipPath564)"
               opacity="0.5"
               id="g570">
              <g
                 transform="translate(1196.6377,596.1943)"
                 id="g568">
                <path
                   d="m 0,0 c -0.86,-2.939 2.148,-5.558 4.978,-4.383 8.235,3.421 22.4,10.532 26.342,20.256 1.49,3.673 2.718,6.641 3.719,9.021 1.334,3.171 -2.008,6.293 -5.075,4.734 C 19.861,24.491 4.232,14.459 0,0"
                   style="fill:#90f99d;fill-opacity:1;fill-rule:nonzero;stroke:none"
                   id="path566" />
              </g>
            </g>
          </g>
        </g>
        <g
           id="g574"
           transform="matrix(0.9999957,0,0,1,236.3376,199.06567)">
          <g
             id="g576" />
          <g
             id="g588">
            <g
               clip-path="url(#clipPath580)"
               opacity="0.350006"
               id="g586">
              <g
                 transform="translate(1211.1504,590.4346)"
                 id="g584">
                <path
                   d="M 0,0 C 0,0 -18.409,-10.942 -15.013,-14.087 -11.617,-17.231 4.104,-4.78 9.765,0 15.425,4.779 9.897,6.719 0,0"
                   style="fill:#f7fdf3;fill-opacity:1;fill-rule:nonzero;stroke:none"
                   id="path582" />
              </g>
            </g>
          </g>
        </g>
        <g
           id="g590"
           transform="matrix(0.9999957,0,0,1,236.3376,199.06567)">
          <g
             id="g592" />
          <g
             id="g604">
            <g
               clip-path="url(#clipPath596)"
               opacity="0.5"
               id="g602">
              <g
                 transform="translate(1213.2422,561.6318)"
                 id="g600">
                <path
                   d="m 0,0 14.339,-44.904 c 0,0 39.066,8.507 40.097,32.868 C 55.467,12.326 36.768,25.91 36.768,25.91 Z"
                   style="fill:#64e878;fill-opacity:1;fill-rule:nonzero;stroke:none"
                   id="path598" />
              </g>
            </g>
          </g>
        </g>
        <g
           id="g606"
           transform="matrix(0.9999957,0,0,1,236.3376,199.06567)">
          <g
             id="g608" />
          <g
             id="g620">
            <g
               clip-path="url(#clipPath612)"
               opacity="0.350006"
               id="g618">
              <g
                 transform="translate(1230.5996,574.5845)"
                 id="g616">
                <path
                   d="m 0,0 c 0,0 -11.965,-8.802 -13.025,-11.317 -1.062,-2.516 4.067,-2.062 7.1,1.61 3.032,3.672 6.554,5.685 9.698,8.452 C 6.918,1.512 3.027,2.288 0,0"
                   style="fill:#f7fdf3;fill-opacity:1;fill-rule:nonzero;stroke:none"
                   id="path614" />
              </g>
            </g>
          </g>
        </g>
        <g
           id="g622"
           transform="matrix(0.9999957,0,0,1,1486.341,862.18827)">
          <path
             d="m 0,0 c 6.679,0 13.206,-0.653 19.527,-1.89 1.442,-0.282 2.895,0.431 3.495,1.771 1.774,3.962 4.66,13.072 3.454,28.751 -1.632,21.214 -15.85,33.883 -25.643,34.837 -0.16,0.04 -0.324,0.065 -0.495,0.065 -0.11,0 -0.226,-0.01 -0.338,-0.013 -0.111,0.003 -0.227,0.013 -0.337,0.013 -0.171,0 -0.335,-0.025 -0.494,-0.065 -9.794,-0.954 -24.012,-13.623 -25.644,-34.837 -1.205,-15.679 1.681,-24.789 3.454,-28.751 0.6,-1.34 2.053,-2.053 3.496,-1.771 C -13.205,-0.653 -6.678,0 0,0"
             style="fill:#8ef59c;fill-opacity:1;fill-rule:nonzero;stroke:none"
             id="path624" />
        </g>
        <g
           id="g626"
           transform="matrix(0.9999957,0,0,1,1423.5756,840.55937)">
          <path
             d="m 0,0 c -14.077,-11.078 -25.155,-25.789 -31.827,-42.703 -4.115,4.347 -7.405,9.992 -8.512,17.246 -3.773,24.652 7.587,33.96 16.753,36.475 C -16.341,13.01 -4.72,10.374 0,0"
             style="fill:#8ef59c;fill-opacity:1;fill-rule:nonzero;stroke:none"
             id="path628" />
        </g>
        <g
           id="g630"
           transform="matrix(0.9999957,0,0,1,1426.9154,649.71407)">
          <path
             d="m 0,0 c -4.87,-2.425 -10.384,-2.777 -14.499,-1.65 -9.156,2.515 -20.517,11.823 -16.743,36.474 0.523,3.371 1.499,6.4 2.817,9.107 C -24.169,33.939 -18.997,24.501 -13,15.908 -8.904,10.052 -4.558,4.739 0,0"
             style="fill:#8ef59c;fill-opacity:1;fill-rule:nonzero;stroke:none"
             id="path632" />
        </g>
        <g
           id="g634"
           transform="matrix(0.9999957,0,0,1,1589.7477,815.10277)">
          <path
             d="m 0,0 c -1.127,-7.375 -4.508,-13.091 -8.733,-17.468 -6.621,16.914 -17.65,31.645 -31.676,42.744 4.659,10.524 16.371,13.201 23.656,11.199 C -7.587,33.959 3.773,24.652 0,0"
             style="fill:#8ef59c;fill-opacity:1;fill-rule:nonzero;stroke:none"
             id="path636" />
        </g>
        <g
           id="g638"
           transform="matrix(0.9999957,0,0,1,1560.8806,648.06367)">
          <path
             d="m 0,0 c -4.227,-1.167 -9.941,-0.755 -14.912,1.852 4.487,4.688 8.764,9.93 12.799,15.707 6.127,8.773 11.4,18.443 15.696,28.666 1.499,-2.868 2.606,-6.108 3.159,-9.75 C 20.516,11.823 9.155,2.516 0,0"
             style="fill:#8ef59c;fill-opacity:1;fill-rule:nonzero;stroke:none"
             id="path640" />
        </g>
        <g
           id="g680"
           transform="matrix(0.9999957,0,0,1,236.3376,199.06567)">
          <g
             id="g682" />
          <g
             id="g694">
            <g
               clip-path="url(#clipPath686)"
               opacity="0.350006"
               id="g692">
              <g
                 transform="translate(1196.2813,556.4902)"
                 id="g690">
                <path
                   d="m 0,0 c 0,0 -3.24,-0.955 -1.243,-7.081 1.998,-6.126 6.999,-20.442 10.016,-26.867 3.018,-6.426 3.773,-4.916 4.905,-4.351 1.132,0.567 0.943,3.019 -1.887,11.32 C 8.961,-18.678 3.771,1.54 0,0"
                   style="fill:#f7fdf3;fill-opacity:1;fill-rule:nonzero;stroke:none"
                   id="path688" />
              </g>
            </g>
          </g>
        </g>
        <g
           id="g696"
           transform="matrix(0.9999957,0,0,1,236.3376,199.06567)">
          <g
             id="g698" />
          <g
             id="g710">
            <g
               clip-path="url(#clipPath702)"
               opacity="0.350006"
               id="g708">
              <g
                 transform="translate(1282.2354,556.3833)"
                 id="g706">
                <path
                   d="m 0,0 c 0,0 -3.146,1.229 -5.32,-4.836 -2.173,-6.065 -6.989,-20.446 -8.539,-27.372 -1.551,-6.928 -0.03,-6.197 1.212,-6.443 1.241,-0.246 2.594,1.808 5.442,10.103 C -4.357,-20.252 3.924,-1.094 0,0"
                   style="fill:#f7fdf3;fill-opacity:1;fill-rule:nonzero;stroke:none"
                   id="path704" />
              </g>
            </g>
          </g>
        </g>
        <g
           id="g712"
           transform="matrix(0.9999957,0,0,1,236.3376,199.06567)">
          <g
             id="g714" />
          <g
             id="g726">
            <g
               clip-path="url(#clipPath718)"
               opacity="0.350006"
               id="g724">
              <g
                 transform="translate(1259.7656,608.3721)"
                 id="g722">
                <path
                   d="m 0,0 c 0,0 -1.98,-3.207 1.32,-6.792 3.302,-3.584 15.754,-13.833 18.867,-14.039 3.113,-0.205 1.886,4.135 -3.491,8.568 C 11.32,-7.829 1.698,4.245 0,0"
                   style="fill:#f7fdf3;fill-opacity:1;fill-rule:nonzero;stroke:none"
                   id="path720" />
              </g>
            </g>
          </g>
        </g>
        <g
           id="g728"
           transform="matrix(0.9999957,0,0,1,236.3376,199.06567)">
          <g
             id="g730" />
          <g
             id="g742">
            <g
               clip-path="url(#clipPath734)"
               opacity="0.350006"
               id="g740">
              <g
                 transform="translate(1262.9922,500.8662)"
                 id="g738">
                <path
                   d="M 0,0 C 0,0 5.893,1.069 7.465,-0.503 9.037,-2.075 1.679,-3.983 -0.208,-2.558 -2.095,-1.132 -1.022,-0.152 0,0"
                   style="fill:#f7fdf3;fill-opacity:1;fill-rule:nonzero;stroke:none"
                   id="path736" />
              </g>
            </g>
          </g>
        </g>
      </g>
    </g>
  </g>
</svg>
