<?xml version="1.0" encoding="UTF-8" standalone="no"?>
<!-- Created with Inkscape (http://www.inkscape.org/) -->

<svg
   width="80mm"
   height="120mm"
   viewBox="0 0 80 120"
   version="1.1"
   id="svg2472"
   inkscape:version="1.1.2 (b8e25be8, 2022-02-05)"
   sodipodi:docname="dessin.svg"
   xmlns:inkscape="http://www.inkscape.org/namespaces/inkscape"
   xmlns:sodipodi="http://sodipodi.sourceforge.net/DTD/sodipodi-0.dtd"
   xmlns="http://www.w3.org/2000/svg"
   xmlns:svg="http://www.w3.org/2000/svg">
  <sodipodi:namedview
     id="namedview2474"
     pagecolor="#505050"
     bordercolor="#eeeeee"
     borderopacity="1"
     inkscape:pageshadow="0"
     inkscape:pageopacity="0"
     inkscape:pagecheckerboard="0"
     inkscape:document-units="mm"
     showgrid="false"
     width="72.92552mm"
     inkscape:zoom="0.64052329"
     inkscape:cx="-267.74983"
     inkscape:cy="272.4335"
     inkscape:window-width="1792"
     inkscape:window-height="1067"
     inkscape:window-x="0"
     inkscape:window-y="25"
     inkscape:window-maximized="0"
     inkscape:current-layer="layer1" />
  <defs
     id="defs2469">
    <clipPath
       clipPathUnits="userSpaceOnUse"
       id="clipPath1846">
      <path
         d="m 913.216,616.609 h 59.775 v -52.628 h -59.775 z"
         id="path1844" />
    </clipPath>
    <clipPath
       clipPathUnits="userSpaceOnUse"
       id="clipPath1862">
      <path
         d="m 921.291,602.178 h 72.17 v -62.18 h -72.17 z"
         id="path1860" />
    </clipPath>
  </defs>
  <g
     inkscape:label="Calque 1"
     inkscape:groupmode="layer"
     id="layer1"
     transform="translate(-68.53724,-96.198103)">
    <g
       id="g1684"
       transform="matrix(0.35277777,0,0,-0.35277777,96.983096,179.86933)">
      <path
         d="m 0,0 -15.39,-22.999 c -1.615,-2.415 -5.172,-2.353 -6.729,0.101 -14.041,22.12 -22.083,50.161 -21.549,77.365 0.05,2.534 2.437,4.375 4.907,3.808 l 20.949,-4.801 c 1.374,-0.315 2.48,-1.328 2.916,-2.667 L 0.481,3.466 C 0.86,2.298 0.683,1.021 0,0"
         style="fill:#3bca60;fill-opacity:1;fill-rule:nonzero;stroke:none"
         id="path1686" />
    </g>
    <g
       id="g1688"
       transform="matrix(0.35277777,0,0,-0.35277777,91.351246,159.3469)">
      <path
         d="m 0,0 -23.2,5.319 c -2.111,0.484 -3.476,2.563 -3.041,4.685 6.681,32.616 34.314,57.683 68.164,60.476 2.317,0.191 4.293,-1.675 4.293,-4 V 33.924 c 0,-1.282 -0.614,-2.487 -1.652,-3.241 L 3.25,0.664 C 2.313,-0.017 1.128,-0.259 0,0"
         style="fill:#3bca5e;fill-opacity:1;fill-rule:nonzero;stroke:none"
         id="path1690" />
    </g>
    <g
       id="g1692"
       transform="matrix(0.35277777,0,0,-0.35277777,123.23026,161.74865)">
      <path
         d="m 0,0 -14.64,-45.07 c -0.54,-1.65 -2.07,-2.77 -3.81,-2.77 h -47.4 c -1.73,0 -3.27,1.12 -3.81,2.77 L -74.03,-31.63 -84.3,0 c -0.54,1.65 0.05,3.46 1.45,4.48 l 38.35,27.86 c 1.4,1.02 3.3,1.02 4.7,0 l 25.14,-18.27 12.8,-9.29 0.41,-0.3 C -0.05,3.46 0.54,1.65 0,0"
         style="fill:#60e86c;fill-opacity:1;fill-rule:nonzero;stroke:none"
         id="path1694" />
    </g>
    <g
       id="g1696"
       transform="matrix(0.35277777,0,0,-0.35277777,118.35268,181.01106)">
      <path
         d="m 0,0 17.5,-27.101 c 0.952,-1.474 0.825,-3.394 -0.291,-4.749 -27.491,-33.354 -64.171,-33.065 -91.482,0.505 -1.116,1.372 -1.221,3.313 -0.237,4.783 l 17.817,26.617 c 0.743,1.111 1.992,1.778 3.329,1.778 H -3.365 C -2.005,1.833 -0.738,1.143 0,0"
         style="fill:#2bba6a;fill-opacity:1;fill-rule:nonzero;stroke:none"
         id="path1698" />
    </g>
    <g
       id="g1700"
       transform="matrix(0.35277777,0,0,-0.35277777,124.49528,159.18533)">
      <path
         d="m 0,0 -40.928,29.73 c -1.038,0.754 -1.652,1.958 -1.652,3.241 v 33.19 c 0,2.345 2.009,4.22 4.343,3.995 C -4.603,66.917 22.695,41.661 29.021,9.016 29.432,6.895 28.053,4.833 25.943,4.366 L 3.222,-0.67 C 2.102,-0.918 0.929,-0.674 0,0"
         style="fill:#3acc61;fill-opacity:1;fill-rule:nonzero;stroke:none"
         id="path1702" />
    </g>
    <g
       id="g1704"
       transform="matrix(0.35277777,0,0,-0.35277777,135.172,161.20502)">
      <path
         d="m 0,0 c -0.025,-27.046 -7.887,-54.454 -21.923,-76.298 -1.584,-2.466 -5.169,-2.504 -6.759,-0.043 l -15.125,23.411 c -0.654,1.012 -0.817,2.265 -0.445,3.411 l 15.204,46.782 c 0.439,1.349 1.558,2.365 2.943,2.673 L -4.884,4.643 C -2.401,5.194 -0.03,3.325 -0.005,0.783 -0.002,0.522 0,0.261 0,0"
         style="fill:#2ebd6d;fill-opacity:1;fill-rule:nonzero;stroke:none"
         id="path1706" />
    </g>
    <g
       id="g1708"
       transform="matrix(0.35277777,0,0,-0.35277777,127.00297,137.72875)">
      <path
         d="m 0,0 4.388,5.879 c 1.336,1.789 0.962,4.34 -0.853,5.642 -5.239,3.757 -10.873,7 -16.827,9.654 -2.145,0.956 -4.648,-0.174 -5.397,-2.4 l -2.32,-6.9 c -0.651,-1.938 0.267,-4.045 2.121,-4.906 4.7,-2.18 9.155,-4.798 13.316,-7.801 C -3.79,-2.118 -1.314,-1.761 0,0"
         style="fill:#2ebd6d;fill-opacity:1;fill-rule:nonzero;stroke:none"
         id="path1710" />
    </g>
    <g
       id="g1712"
       transform="matrix(0.35277777,0,0,-0.35277777,91.619427,138.06915)">
      <path
         d="m 0,0 c 4.142,3.007 8.576,5.632 13.254,7.822 1.847,0.865 2.757,2.968 2.107,4.9 l -2.186,6.502 C 12.421,21.469 9.882,22.596 7.732,21.603 1.879,18.898 -3.655,15.622 -8.799,11.845 -10.585,10.534 -10.941,8.005 -9.616,6.229 L -5.582,0.825 C -4.265,-0.94 -1.782,-1.294 0,0"
         style="fill:#2ebd6d;fill-opacity:1;fill-rule:nonzero;stroke:none"
         id="path1714" />
    </g>
    <g
       id="g1716"
       transform="matrix(0.35277777,0,0,-0.35277777,134.38548,146.2526)">
      <path
         d="m 0,0 6.253,4.055 c 1.852,1.201 2.393,3.68 1.196,5.535 -4.112,6.373 -8.956,12.229 -14.416,17.447 -1.731,1.654 -4.532,1.397 -5.965,-0.523 l -4.449,-5.961 c -1.2,-1.608 -1.015,-3.846 0.413,-5.254 4.3,-4.239 8.123,-8.958 11.396,-14.063 C -4.364,-0.647 -1.876,-1.217 0,0"
         style="fill:#2ebd6d;fill-opacity:1;fill-rule:nonzero;stroke:none"
         id="path1718" />
    </g>
    <g
       id="g1720"
       transform="matrix(0.35277777,0,0,-0.35277777,138.06449,156.6568)">
      <path
         d="m 0,0 7.305,1.628 c 2.13,0.475 3.497,2.57 3.062,4.708 -1.48,7.282 -3.784,14.264 -6.81,20.845 -1.015,2.206 -3.773,2.974 -5.81,1.653 l -6.349,-4.117 c -1.656,-1.073 -2.27,-3.188 -1.472,-4.993 C -7.752,14.471 -5.972,8.928 -4.807,3.164 -4.358,0.946 -2.209,-0.493 0,0"
         style="fill:#2ebd6d;fill-opacity:1;fill-rule:nonzero;stroke:none"
         id="path1722" />
    </g>
    <g
       id="g1724"
       transform="matrix(0.35277777,0,0,-0.35277777,110.55023,132.72217)">
      <path
         d="m 0,0 c 5.543,-0.422 10.93,-1.403 16.107,-2.889 2.066,-0.593 4.23,0.525 4.914,2.562 l 2.286,6.798 c 0.725,2.156 -0.484,4.503 -2.673,5.127 -6.448,1.836 -13.174,3.014 -20.099,3.459 -2.3,0.147 -4.242,-1.702 -4.242,-4.006 V 3.986 C -3.707,1.891 -2.089,0.159 0,0"
         style="fill:#2ebd6d;fill-opacity:1;fill-rule:nonzero;stroke:none"
         id="path1726" />
    </g>
    <g
       id="g1728"
       transform="matrix(0.35277777,0,0,-0.35277777,88.753284,190.49986)">
      <path
         d="m 0,0 c -3.13,4.483 -6.002,9.235 -8.598,14.199 -1.17,2.236 -4.078,2.859 -6.048,1.283 l -5.2,-4.159 c -1.513,-1.21 -1.934,-3.324 -1.025,-5.035 3.157,-5.944 6.654,-11.573 10.45,-16.809 1.653,-2.279 5.059,-2.235 6.61,0.115 l 3.899,5.909 C 0.989,-3.133 0.952,-1.362 0.016,-0.022 0.011,-0.015 0.005,-0.007 0,0"
         style="fill:#2ebd6d;fill-opacity:1;fill-rule:nonzero;stroke:none"
         id="path1730" />
    </g>
    <g
       id="g1732"
       transform="matrix(0.35277777,0,0,-0.35277777,130.96967,185.5548)">
      <path
         d="m 0,0 c -2.614,-4.986 -5.49,-9.737 -8.684,-14.278 -0.942,-1.339 -0.943,-3.126 -0.042,-4.493 l 4.344,-6.583 c 1.523,-2.307 4.894,-2.433 6.539,-0.21 3.927,5.305 7.544,11.029 10.806,17.086 0.923,1.713 0.507,3.841 -1.013,5.056 L 6.057,1.291 C 4.083,2.87 1.174,2.238 0,0"
         style="fill:#2ebd6d;fill-opacity:1;fill-rule:nonzero;stroke:none"
         id="path1734" />
    </g>
    <g
       id="g1736"
       transform="matrix(0.35277777,0,0,-0.35277777,79.785709,161.20502)">
      <path
         d="M 0,0 C 0,1.183 0.031,2.357 0.087,3.526 0.182,5.488 -1.124,7.24 -3.04,7.667 l -6.432,1.434 c -2.4,0.534 -4.738,-1.196 -4.873,-3.651 -0.248,-4.539 -0.18,-9.133 0.063,-13.681 0.119,-2.228 2.046,-3.925 4.272,-3.776 l 6.475,0.434 c 2.181,0.146 3.84,2.012 3.727,4.195 C 0.065,-4.917 0,-2.457 0,0"
         style="fill:#2ebd6d;fill-opacity:1;fill-rule:nonzero;stroke:none"
         id="path1738" />
    </g>
    <g
       id="g1740"
       transform="matrix(0.35277777,0,0,-0.35277777,81.668448,147.99049)">
      <path
         d="m 0,0 -5.583,3.621 c -2.046,1.327 -4.818,0.545 -5.82,-1.679 -2.915,-6.471 -5.134,-13.323 -6.561,-20.462 -0.427,-2.134 0.941,-4.221 3.065,-4.694 l 6.351,-1.416 c 2.21,-0.493 4.361,0.948 4.807,3.168 1.156,5.744 2.922,11.268 5.226,16.505 C 2.274,-3.163 1.644,-1.066 0,0"
         style="fill:#2ebd6d;fill-opacity:1;fill-rule:nonzero;stroke:none"
         id="path1742" />
    </g>
    <g
       id="g1744"
       transform="matrix(0.35277777,0,0,-0.35277777,84.27276,145.86247)">
      <path
         d="m 0,0 c 3.249,5.091 7.044,9.8 11.313,14.033 1.422,1.41 1.602,3.642 0.405,5.246 L 7.689,24.677 C 6.247,26.609 3.42,26.855 1.695,25.17 -3.622,19.976 -8.338,14.17 -12.339,7.865 c -1.176,-1.853 -0.63,-4.314 1.212,-5.509 l 5.55,-3.599 C -3.697,-2.462 -1.205,-1.889 0,0"
         style="fill:#2ebd6d;fill-opacity:1;fill-rule:nonzero;stroke:none"
         id="path1746" />
    </g>
    <g
       id="g1748"
       transform="matrix(0.35277777,0,0,-0.35277777,136.56381,174.09898)">
      <path
         d="m 0,0 7.048,-2.715 c 2.282,-0.879 4.813,0.473 5.356,2.858 1.109,4.867 2.005,9.808 2.678,14.795 0.311,2.305 -1.386,4.398 -3.707,4.554 L 3.899,19.993 C 1.812,20.132 -0.043,18.644 -0.328,16.571 -0.884,12.541 -1.604,8.533 -2.479,4.563 -2.901,2.644 -1.835,0.707 0,0"
         style="fill:#2ebd6d;fill-opacity:1;fill-rule:nonzero;stroke:none"
         id="path1750" />
    </g>
    <g
       id="g1752"
       transform="matrix(0.35277777,0,0,-0.35277777,140.62351,157.89395)">
      <path
         d="m 0,0 -7.426,-1.655 c -1.898,-0.423 -3.213,-2.148 -3.123,-4.092 0.17,-3.658 0.099,-7.34 -0.097,-11.009 -0.118,-2.193 1.537,-4.076 3.728,-4.223 l 7.471,-0.5 c 2.225,-0.149 4.151,1.547 4.271,3.774 0.253,4.676 0.32,9.4 0.049,14.065 C 4.731,-1.19 2.396,0.534 0,0"
         style="fill:#2ebd6d;fill-opacity:1;fill-rule:nonzero;stroke:none"
         id="path1754" />
    </g>
    <g
       id="g1756"
       transform="matrix(0.35277777,0,0,-0.35277777,134.5474,176.82923)">
      <path
         d="m 0,0 c -1.354,-4.398 -2.899,-8.717 -4.635,-12.927 -0.678,-1.646 -0.162,-3.544 1.228,-4.656 l 6.004,-4.801 c 2.062,-1.649 5.14,-0.894 6.183,1.532 2.192,5.094 4.145,10.359 5.837,15.756 0.635,2.026 -0.396,4.201 -2.379,4.964 L 5.26,2.556 C 3.097,3.39 0.683,2.216 0,0"
         style="fill:#2ebd6d;fill-opacity:1;fill-rule:nonzero;stroke:none"
         id="path1758" />
    </g>
    <g
       id="g1760"
       transform="matrix(0.35277777,0,0,-0.35277777,125.02516,194.23539)">
      <path
         d="m 0,0 c -4.632,-5.187 -9.515,-9.592 -14.574,-13.172 -1.373,-0.971 -1.978,-2.701 -1.528,-4.322 l 2.041,-7.342 c 0.728,-2.618 3.795,-3.77 6.067,-2.279 6.406,4.206 12.444,9.381 18.023,15.347 1.275,1.363 1.468,3.415 0.441,4.972 l -4.164,6.31 C 4.866,1.695 1.741,1.949 0,0"
         style="fill:#2ebd6d;fill-opacity:1;fill-rule:nonzero;stroke:none"
         id="path1762" />
    </g>
    <g
       id="g1764"
       transform="matrix(0.35277777,0,0,-0.35277777,96.754355,198.82288)">
      <path
         d="m 0,0 c -5.035,3.593 -9.892,8.004 -14.499,13.19 -1.739,1.957 -4.872,1.707 -6.314,-0.477 l -3.751,-5.686 c -1.019,-1.544 -0.839,-3.578 0.411,-4.942 5.466,-5.966 11.382,-11.172 17.663,-15.44 2.267,-1.541 5.381,-0.396 6.115,2.246 l 1.889,6.797 C 1.963,-2.698 1.364,-0.973 0,0"
         style="fill:#2ebd6d;fill-opacity:1;fill-rule:nonzero;stroke:none"
         id="path1766" />
    </g>
    <g
       id="g1768"
       transform="matrix(0.35277777,0,0,-0.35277777,107.63776,206.57711)">
      <path
         d="m 0,0 -0.026,6.937 c -0.008,2.025 -1.507,3.77 -3.52,4.001 -5.532,0.633 -11.011,2.201 -16.359,4.654 -2.241,1.028 -4.869,-0.185 -5.53,-2.561 l -1.83,-6.585 c -0.528,-1.901 0.401,-3.916 2.2,-4.726 6.587,-2.969 13.472,-4.929 20.572,-5.716 C -2.096,-4.262 0.009,-2.411 0,0"
         style="fill:#2ebd6d;fill-opacity:1;fill-rule:nonzero;stroke:none"
         id="path1770" />
    </g>
    <g
       id="g1772"
       transform="matrix(0.35277777,0,0,-0.35277777,81.024911,172.45207)">
      <path
         d="m 0,0 c -0.865,3.941 -1.58,7.92 -2.131,11.922 -0.285,2.073 -2.14,3.562 -4.227,3.422 l -6.488,-0.435 c -2.319,-0.155 -4.016,-2.245 -3.707,-4.55 0.652,-4.857 1.516,-9.672 2.582,-14.417 0.536,-2.39 3.072,-3.747 5.358,-2.867 l 6.134,2.363 C -0.645,-3.855 0.421,-1.919 0,0"
         style="fill:#2ebd6d;fill-opacity:1;fill-rule:nonzero;stroke:none"
         id="path1774" />
    </g>
    <g
       id="g1776"
       transform="matrix(0.35277777,0,0,-0.35277777,80.30849,175.89077)">
      <path
         d="m 0,0 -6.087,-2.345 c -1.977,-0.761 -3.011,-2.928 -2.383,-4.951 1.638,-5.278 3.523,-10.433 5.637,-15.426 1.033,-2.44 4.123,-3.205 6.191,-1.551 l 5.273,4.217 c 1.385,1.107 1.9,2.997 1.226,4.638 C 8.137,-11.23 6.604,-6.933 5.261,-2.56 4.58,-0.342 2.165,0.834 0,0"
         style="fill:#2ebd6d;fill-opacity:1;fill-rule:nonzero;stroke:none"
         id="path1778" />
    </g>
    <g
       id="g1780"
       transform="matrix(0.35277777,0,0,-0.35277777,116.0307,201.11216)">
      <path
         d="m 0,0 c -5.004,-2.269 -10.119,-3.762 -15.286,-4.442 -2.017,-0.267 -3.539,-1.954 -3.532,-3.988 l 0.027,-7.101 c 0.009,-2.393 2.099,-4.229 4.477,-3.969 6.706,0.732 13.219,2.516 19.473,5.203 1.833,0.788 2.789,2.827 2.255,4.749 L 5.479,-2.585 C 4.824,-0.23 2.225,1.009 0,0"
         style="fill:#2ebd6d;fill-opacity:1;fill-rule:nonzero;stroke:none"
         id="path1782" />
    </g>
    <g
       id="g1784"
       transform="matrix(0.35277777,0,0,-0.35277777,100.39703,133.76812)">
      <path
         d="m 0,0 c 5.258,1.529 10.733,2.536 16.37,2.965 2.088,0.159 3.704,1.891 3.704,3.986 v 6.995 c 0,2.321 -1.969,4.176 -4.283,4.002 C 8.792,17.423 2.003,16.147 -4.497,14.201 -6.658,13.554 -7.84,11.227 -7.121,9.088 L -4.926,2.559 C -4.24,0.518 -2.068,-0.601 0,0"
         style="fill:#2ebd6d;fill-opacity:1;fill-rule:nonzero;stroke:none"
         id="path1786" />
    </g>
    <g
       id="g1788"
       transform="matrix(0.35277777,0,0,-0.35277777,113.73831,136.40845)">
      <path
         d="m 0,0 c -2.854,1.047 -5.949,-0.777 -6.41,-3.782 -1.145,-7.458 -1.976,-20.547 4.476,-27.774 6.981,-7.818 28.363,-15.429 38.828,-18.806 3.182,-1.027 6.431,1.43 6.261,4.77 C 42.608,-34.851 36.595,-13.424 0,0"
         style="fill:#6be873;fill-opacity:1;fill-rule:nonzero;stroke:none"
         id="path1790" />
    </g>
    <g
       id="g1792"
       transform="matrix(0.35277777,0,0,-0.35277777,114.58893,141.63721)">
      <path
         d="m 0,0 c 2.263,-7.379 7.804,-18.544 21.299,-26.28 3.041,-1.743 6.718,0.948 5.933,4.365 C 23.999,-7.83 19.333,-1.345 5.477,4.815 2.347,6.207 -1.004,3.274 0,0"
         style="fill:#8ef59c;fill-opacity:1;fill-rule:nonzero;stroke:none"
         id="path1794" />
    </g>
    <g
       id="g1796"
       transform="matrix(0.35277777,0,0,-0.35277777,133.19104,165.56426)">
      <path
         d="m 0,0 c 0.686,4.282 -3.518,7.732 -7.578,6.211 -6.923,-2.594 -15.96,-7.475 -18.94,-15.87 -3.554,-10.014 -1.833,-25.07 2.108,-35.203 1.817,-4.674 8.377,-4.865 10.466,-0.306 C -5.222,-26.134 -1.532,-9.571 0,0"
         style="fill:#3dcc62;fill-opacity:1;fill-rule:nonzero;stroke:none"
         id="path1798" />
    </g>
    <g
       id="g1800"
       transform="matrix(0.35277777,0,0,-0.35277777,130.30063,164.34488)">
      <path
         d="m 0,0 c -0.077,2.996 -4.036,4.021 -5.57,1.447 -4.137,-6.936 -10.062,-18.461 -10.16,-27.708 -0.042,-3.987 0.074,-7.224 0.264,-9.818 0.225,-3.071 4.357,-3.867 5.693,-1.093 2.892,6.007 6.522,14.737 8.357,23.847 C -0.237,-7.477 0.081,-3.15 0,0"
         style="fill:#72e892;fill-opacity:1;fill-rule:nonzero;stroke:none"
         id="path1802" />
    </g>
    <g
       id="g1804"
       transform="matrix(0.35277777,0,0,-0.35277777,96.56142,192.92658)">
      <path
         d="m 0,0 c -2.876,2.267 -3.403,6.442 -1.127,9.311 5.673,7.154 17.471,19.217 32.509,19.217 14.915,0 27.273,-11.868 33.382,-19.041 2.494,-2.93 2.029,-7.361 -1.072,-9.639 C 53.076,-7.955 27.547,-21.711 0,0"
         style="fill:#42d168;fill-opacity:1;fill-rule:nonzero;stroke:none"
         id="path1806" />
    </g>
    <g
       id="g1808"
       transform="matrix(0.35277777,0,0,-0.35277777,99.92057,187.72519)">
      <path
         d="m 0,0 c -3.788,1.046 -4.946,5.929 -1.994,8.521 4.78,4.2 13.027,9.013 25.72,9.013 12.785,0 21.315,-5.295 26.297,-9.87 C 53.016,4.916 51.645,-0.07 47.668,-0.902 37.619,-3.005 19.23,-5.312 0,0"
         style="fill:#70e493;fill-opacity:1;fill-rule:nonzero;stroke:none"
         id="path1810" />
    </g>
    <g
       id="g1812"
       transform="matrix(0.35277777,0,0,-0.35277777,100.78615,182.23407)">
      <path
         d="m 0,0 c -1.417,0.077 -5.531,-1.687 -4.406,-3.281 1.125,-1.594 2.343,-0.938 13.312,-0.938 10.969,0 16.406,-0.736 17.813,-0.134 1.406,0.603 3.75,2.009 1.406,3.416 C 25.781,0.469 8.931,-0.485 0,0"
         style="fill:#f7fdf3;fill-opacity:1;fill-rule:nonzero;stroke:none"
         id="path1814" />
    </g>
    <g
       id="g1816"
       transform="matrix(0.35277777,0,0,-0.35277777,83.372224,163.61435)">
      <path
         d="m 0,0 c -0.111,2.811 2.813,4.712 5.338,3.471 5.481,-2.694 13.797,-8.905 18.635,-22.783 5.074,-14.553 2.416,-28.997 0.034,-37.108 -0.882,-3.008 -4.858,-3.644 -6.607,-1.042 C 11.433,-48.585 1.154,-29.234 0,0"
         style="fill:#67e96f;fill-opacity:1;fill-rule:nonzero;stroke:none"
         id="path1818" />
    </g>
    <g
       id="g1820"
       transform="matrix(0.35277777,0,0,-0.35277777,87.110151,162.42027)">
      <path
         d="m 0,0 c -2.212,1.732 -5.435,0 -5.192,-2.799 0.742,-8.569 2.5,-24.142 5.99,-33.291 5,-13.106 8.117,-13.09 9.25,2.821 C 11.009,-19.773 9.163,-7.174 0,0"
         style="fill:#8ff29f;fill-opacity:1;fill-rule:nonzero;stroke:none"
         id="path1822" />
    </g>
    <g
       id="g1824"
       transform="matrix(0.35277777,0,0,-0.35277777,84.730101,152.25226)">
      <path
         d="m 0,0 c -2.226,-3.889 0.309,-8.779 4.775,-9.142 7.92,-0.645 20.699,0.67 36.127,10.828 19.196,12.639 19.346,29.62 18.036,37.847 -0.49,3.079 -3.254,5.298 -6.365,5.09 C 43.023,43.986 21.676,37.875 0,0"
         style="fill:#64e878;fill-opacity:1;fill-rule:nonzero;stroke:none"
         id="path1826" />
    </g>
    <g
       id="g1828"
       transform="matrix(0.35277777,0,0,-0.35277777,89.772001,149.13702)">
      <path
         d="m 0,0 c -0.855,-2.921 2.135,-5.524 4.946,-4.356 8.185,3.399 22.263,10.467 26.181,20.131 1.48,3.651 2.701,6.6 3.696,8.966 1.325,3.151 -1.996,6.254 -5.044,4.704 C 19.738,24.34 4.206,14.37 0,0"
         style="fill:#90f99d;fill-opacity:1;fill-rule:nonzero;stroke:none"
         id="path1830" />
    </g>
    <g
       id="g1832"
       transform="matrix(0.35277777,0,0,-0.35277777,94.86022,151.15653)">
      <path
         d="m 0,0 c 0,0 -18.296,-10.875 -14.921,-14 3.375,-3.125 19,9.25 24.625,14 C 15.329,4.75 9.836,6.678 0,0"
         style="fill:#f7fdf3;fill-opacity:1;fill-rule:nonzero;stroke:none"
         id="path1834" />
    </g>
    <g
       id="g1836"
       transform="matrix(0.35277777,0,0,-0.35277777,95.59368,161.2548)">
      <path
         d="m 0,0 14.25,-44.628 c 0,0 38.825,8.455 39.851,32.667 1.024,24.211 -17.56,37.711 -17.56,37.711 z"
         style="fill:#85fa91;fill-opacity:1;fill-rule:nonzero;stroke:none"
         id="path1838" />
    </g>
    <g
       id="g1840"
       transform="matrix(0.35277777,0,0,-0.35277777,-227.89697,369.12497)">
      <g
         id="g1842" />
      <g
         id="g1854">
        <g
           clip-path="url(#clipPath1846)"
           opacity="0.429993"
           id="g1852">
          <g
             transform="translate(913.2158,581.084)"
             id="g1850">
            <path
               d="M 0,0 47.222,35.525 59.775,26.404 5.556,-17.103 Z"
               style="fill:#f7fdf3;fill-opacity:1;fill-rule:nonzero;stroke:none"
               id="path1848" />
          </g>
        </g>
      </g>
    </g>
    <g
       id="g1856"
       transform="matrix(0.35277777,0,0,-0.35277777,-227.89697,369.12497)">
      <g
         id="g1858" />
      <g
         id="g1870">
        <g
           clip-path="url(#clipPath1862)"
           opacity="0.429993"
           id="g1868">
          <g
             transform="translate(993.4609,592.6182)"
             id="g1866">
            <path
               d="m 0,0 -38.77,-52.62 h -25.219 c -1.731,0 -3.271,1.12 -3.81,2.77 l -4.37,13.44 58.829,45.97 0.54,-0.27 z"
               style="fill:#f7fdf3;fill-opacity:1;fill-rule:nonzero;stroke:none"
               id="path1864" />
          </g>
        </g>
      </g>
    </g>
    <g
       id="g1872"
       transform="matrix(0.35277777,0,0,-0.35277777,101.6791,156.71349)">
      <path
         d="m 0,0 c 0,0 -11.891,-8.748 -12.945,-11.248 -1.055,-2.5 4.043,-2.049 7.056,1.601 3.014,3.649 6.514,5.649 9.639,8.399 C 6.875,1.502 3.009,2.274 0,0"
         style="fill:#f7fdf3;fill-opacity:1;fill-rule:nonzero;stroke:none"
         id="path1874" />
    </g>
    <path
       d="m 108.48422,125.67162 c 2.34138,0 4.62985,0.22895 6.846,0.66252 0.50589,0.0991 1.0153,-0.15064 1.22555,-0.62089 0.62195,-1.38889 1.63372,-4.58294 1.21074,-10.07992 -0.57221,-7.43797 -5.55661,-11.87978 -8.99055,-12.21422 -0.0561,-0.0141 -0.11359,-0.0229 -0.17356,-0.0229 -0.0385,0 -0.079,0.004 -0.11818,0.005 -0.0392,-0.001 -0.0794,-0.005 -0.11818,-0.005 -0.06,0 -0.11748,0.009 -0.17357,0.0229 -3.43359,0.33444 -8.418338,4.77625 -8.990544,12.21422 -0.422627,5.49698 0.589139,8.69068 1.211084,10.07992 0.21026,0.47025 0.71967,0.72002 1.2252,0.62089 2.21615,-0.43357 4.50462,-0.66252 6.84601,-0.66252"
       style="fill:#8ef59c;fill-opacity:1;fill-rule:nonzero;stroke:none;stroke-width:0.352778"
       id="path1878" />
    <g
       id="g1880"
       transform="matrix(0.35277777,0,0,-0.35277777,86.477973,133.25479)">
      <path
         d="m 0,0 c -13.99,-11.01 -25,-25.63 -31.63,-42.44 -4.09,4.32 -7.36,9.93 -8.46,17.14 -3.75,24.5 7.54,33.75 16.65,36.25 C -16.24,12.93 -4.69,10.31 0,0"
         style="fill:#8ef59c;fill-opacity:1;fill-rule:nonzero;stroke:none"
         id="path1882" />
    </g>
    <g
       id="g1884"
       transform="matrix(0.35277777,0,0,-0.35277777,87.649125,200.16611)">
      <path
         d="m 0,0 c -4.84,-2.41 -10.32,-2.76 -14.41,-1.641 -9.1,2.5 -20.39,11.75 -16.64,36.25 0.52,3.351 1.49,6.361 2.8,9.051 4.23,-9.931 9.37,-19.31 15.33,-27.85 C -8.85,9.99 -4.53,4.71 0,0"
         style="fill:#8ef59c;fill-opacity:1;fill-rule:nonzero;stroke:none"
         id="path1886" />
    </g>
    <g
       id="g1888"
       transform="matrix(0.35277777,0,0,-0.35277777,144.73937,142.18)">
      <path
         d="m 0,0 c -1.12,-7.33 -4.48,-13.01 -8.681,-17.36 -6.58,16.81 -17.54,31.45 -31.479,42.48 4.63,10.46 16.269,13.12 23.51,11.13 C -7.54,33.75 3.75,24.5 0,0"
         style="fill:#8ef59c;fill-opacity:1;fill-rule:nonzero;stroke:none"
         id="path1890" />
    </g>
    <g
       id="g1892"
       transform="matrix(0.35277777,0,0,-0.35277777,134.61803,200.74488)">
      <path
         d="M 0,0 C -4.2,-1.159 -9.88,-0.75 -14.82,1.841 -10.36,6.5 -6.11,11.71 -2.1,17.45 3.99,26.171 9.23,35.78 13.5,45.94 14.99,43.091 16.09,39.87 16.64,36.25 20.39,11.75 9.1,2.5 0,0"
         style="fill:#8ef59c;fill-opacity:1;fill-rule:nonzero;stroke:none"
         id="path1894" />
    </g>
    <g
       id="g1934"
       transform="matrix(0.35277777,0,0,-0.35277777,89.646941,163.05746)">
      <path
         d="m 0,0 c 0,0 -3.22,-0.949 -1.235,-7.037 1.985,-6.088 6.956,-20.317 9.955,-26.703 2.999,-6.385 3.749,-4.885 4.874,-4.323 1.125,0.563 0.937,3 -1.875,11.251 C 8.906,-18.562 3.749,1.53 0,0"
         style="fill:#f7fdf3;fill-opacity:1;fill-rule:nonzero;stroke:none"
         id="path1936" />
    </g>
    <g
       id="g1938"
       transform="matrix(0.35277777,0,0,-0.35277777,119.78274,163.09499)">
      <path
         d="m 0,0 c 0,0 -3.127,1.222 -5.287,-4.806 -2.159,-6.028 -6.945,-20.32 -8.486,-27.204 -1.541,-6.885 -0.03,-6.158 1.204,-6.403 1.234,-0.245 2.579,1.797 5.409,10.041 C -4.33,-20.128 3.9,-1.087 0,0"
         style="fill:#f7fdf3;fill-opacity:1;fill-rule:nonzero;stroke:none"
         id="path1940" />
    </g>
    <g
       id="g1942"
       transform="matrix(0.35277777,0,0,-0.35277777,111.90486,144.86735)">
      <path
         d="m 0,0 c 0,0 -1.969,-3.188 1.312,-6.75 3.282,-3.563 15.657,-13.749 18.75,-13.953 3.094,-0.203 1.875,4.109 -3.468,8.515 C 11.25,-7.781 1.687,4.219 0,0"
         style="fill:#f7fdf3;fill-opacity:1;fill-rule:nonzero;stroke:none"
         id="path1944" />
    </g>
    <g
       id="g1946"
       transform="matrix(0.35277777,0,0,-0.35277777,113.03622,182.55961)">
      <path
         d="M 0,0 C 0,0 5.855,1.062 7.418,-0.5 8.98,-2.063 1.668,-3.959 -0.207,-2.542 -2.082,-1.125 -1.017,-0.151 0,0"
         style="fill:#f7fdf3;fill-opacity:1;fill-rule:nonzero;stroke:none"
         id="path1948" />
    </g>
  </g>
</svg>
