<?xml version="1.0" encoding="UTF-8" standalone="no"?>
<!-- Created with Inkscape (http://www.inkscape.org/) -->

<svg
   width="54"
   height="54"
   viewBox="0 0 14.2875 14.2875"
   version="1.1"
   id="svg1267"
   inkscape:version="1.1.2 (b8e25be8, 2022-02-05)"
   sodipodi:docname="dessin-2.svg"
   xmlns:inkscape="http://www.inkscape.org/namespaces/inkscape"
   xmlns:sodipodi="http://sodipodi.sourceforge.net/DTD/sodipodi-0.dtd"
   xmlns="http://www.w3.org/2000/svg"
   xmlns:svg="http://www.w3.org/2000/svg">
  <sodipodi:namedview
     id="namedview1269"
     pagecolor="#505050"
     bordercolor="#eeeeee"
     borderopacity="1"
     inkscape:pageshadow="0"
     inkscape:pageopacity="0"
     inkscape:pagecheckerboard="0"
     inkscape:document-units="mm"
     showgrid="false"
     units="px"
     inkscape:zoom="4.3979601"
     inkscape:cx="-7.3897897"
     inkscape:cy="76.512746"
     inkscape:window-width="1792"
     inkscape:window-height="1067"
     inkscape:window-x="0"
     inkscape:window-y="25"
     inkscape:window-maximized="1"
     inkscape:current-layer="g923" />
  <defs
     id="defs1264">
    <clipPath
       clipPathUnits="userSpaceOnUse"
       id="clipPath927">
      <path
         d="M 0,1080 H 1920 V 0 H 0 Z"
         id="path925" />
    </clipPath>
  </defs>
  <g
     inkscape:label="Calque 1"
     inkscape:groupmode="layer"
     id="layer1">
    <g
       id="g921"
       transform="matrix(0.35277777,0,0,-0.35277777,-238.94292,343.29253)">
      <g
         id="g923"
         clip-path="url(#clipPath927)">
        <g
           id="g929"
           transform="matrix(0.13663665,0,0,0.13663665,693.09514,943.50427)">
          <path
             d="m 0,0 -15.384,-22.991 c -1.616,-2.414 -5.171,-2.353 -6.727,0.1 -14.036,22.113 -22.075,50.143 -21.541,77.337 0.049,2.533 2.435,4.373 4.905,3.807 l 20.941,-4.799 c 1.373,-0.315 2.479,-1.327 2.914,-2.666 L 0.48,3.464 C 0.859,2.297 0.683,1.02 0,0"
             style="fill:#ffffff;fill-opacity:1;fill-rule:nonzero;stroke:none"
             id="path931" />
        </g>
        <g
           id="g933"
           transform="matrix(0.13663665,0,0,0.13663665,690.91456,951.44995)">
          <path
             d="m 0,0 -23.192,5.317 c -2.11,0.484 -3.474,2.562 -3.039,4.683 6.679,32.604 34.302,57.663 68.139,60.454 2.316,0.192 4.291,-1.674 4.291,-3.998 V 33.912 c 0,-1.283 -0.614,-2.487 -1.651,-3.24 L 3.249,0.664 C 2.313,-0.017 1.128,-0.259 0,0"
             style="fill:#ffffff;fill-opacity:1;fill-rule:nonzero;stroke:none"
             id="path935" />
        </g>
        <g
           id="g937"
           transform="matrix(0.13663665,0,0,0.13663665,703.25735,950.52005)">
          <path
             d="m 0,0 -14.634,-45.053 c -0.54,-1.65 -2.07,-2.77 -3.809,-2.77 h -47.383 c -1.73,0 -3.269,1.12 -3.808,2.77 L -74.003,-31.618 -84.269,0 c -0.54,1.649 0.05,3.459 1.45,4.479 l 38.335,27.849 c 1.4,1.02 3.299,1.02 4.698,0 L -14.654,14.065 -1.859,4.778 -1.449,4.479 C -0.05,3.459 0.54,1.649 0,0"
             style="fill:#ffffff;fill-opacity:1;fill-rule:nonzero;stroke:none"
             id="path939" />
        </g>
        <g
           id="g941"
           transform="matrix(0.13663665,0,0,0.13663665,701.36887,943.06208)">
          <path
             d="m 0,0 17.494,-27.091 c 0.951,-1.473 0.825,-3.392 -0.291,-4.747 -27.481,-33.342 -64.148,-33.054 -91.449,0.505 -1.116,1.372 -1.22,3.312 -0.236,4.781 l 17.81,26.608 c 0.743,1.11 1.991,1.777 3.327,1.777 H -3.364 C -2.004,1.833 -0.738,1.143 0,0"
             style="fill:#ffffff;fill-opacity:1;fill-rule:nonzero;stroke:none"
             id="path943" />
        </g>
        <g
           id="g945"
           transform="matrix(0.13663665,0,0,0.13663665,707.29001,952.10939)">
          <path
             d="m 0,0 -15.095,-3.349 -7.616,-1.689 c -1.12,-0.25 -2.29,0 -3.22,0.67 l -24.041,17.463 -0.1,0.07 -8.507,6.188 -8.266,5.998 c -0.16,0.12 -0.311,0.24 -0.441,0.38 -0.769,0.749 -1.209,1.779 -1.209,2.859 v 33.178 c 0,2.349 2.009,4.218 4.338,3.998 3.889,-0.37 7.698,-1.049 11.396,-1.989 5.928,-1.509 11.576,-3.709 16.854,-6.538 1.869,-0.989 3.699,-2.069 5.478,-3.218 3.479,-2.25 6.778,-4.769 9.836,-7.548 2.469,-2.229 4.799,-4.618 6.948,-7.157 C -6.258,30.669 -0.79,20.333 2.109,8.997 2.469,7.567 2.799,6.118 3.079,4.648 3.489,2.519 2.109,0.46 0,0"
             style="fill:#ffffff;fill-opacity:1;fill-rule:nonzero;stroke:none"
             id="path947" />
        </g>
        <g
           id="g949"
           transform="matrix(0.13663665,0,0,0.13663665,707.88078,950.73055)">
          <path
             d="m 0,0 c -0.025,-27.036 -7.883,-54.434 -21.914,-76.271 -1.584,-2.464 -5.167,-2.502 -6.757,-0.042 l -15.119,23.402 c -0.654,1.012 -0.817,2.265 -0.445,3.411 l 15.198,46.764 c 0.439,1.348 1.558,2.364 2.942,2.672 L -4.881,4.642 C -2.4,5.192 -0.029,3.324 -0.004,0.783 -0.001,0.522 0,0.261 0,0"
             style="fill:#ffffff;fill-opacity:1;fill-rule:nonzero;stroke:none"
             id="path951" />
        </g>
        <g
           id="g953"
           transform="matrix(0.13663665,0,0,0.13663665,704.71807,959.82001)">
          <path
             d="m 0,0 4.386,5.877 c 1.335,1.789 0.962,4.338 -0.852,5.639 -5.238,3.756 -10.869,6.997 -16.821,9.651 -2.144,0.956 -4.647,-0.174 -5.395,-2.399 l -2.319,-6.898 c -0.651,-1.937 0.266,-4.044 2.12,-4.904 C -14.183,4.787 -9.729,2.17 -5.57,-0.832 -3.789,-2.118 -1.314,-1.761 0,0"
             style="fill:#ffffff;fill-opacity:1;fill-rule:nonzero;stroke:none"
             id="path955" />
        </g>
        <g
           id="g957"
           transform="matrix(0.13663665,0,0,0.13663665,691.01844,959.68819)">
          <path
             d="m 0,0 c 4.14,3.006 8.572,5.63 13.249,7.819 1.846,0.865 2.756,2.967 2.106,4.898 l -2.185,6.5 C 12.416,21.461 9.879,22.588 7.729,21.595 1.878,18.891 -3.653,15.616 -8.796,11.841 -10.581,10.53 -10.938,8.002 -9.613,6.228 L -5.58,0.825 C -4.263,-0.94 -1.782,-1.293 0,0"
             style="fill:#ffffff;fill-opacity:1;fill-rule:nonzero;stroke:none"
             id="path959" />
        </g>
        <g
           id="g961"
           transform="matrix(0.13663665,0,0,0.13663665,707.57642,956.51979)">
          <path
             d="m 0,0 6.25,4.053 c 1.852,1.2 2.392,3.678 1.196,5.533 -4.111,6.371 -8.952,12.225 -14.41,17.44 -1.731,1.655 -4.531,1.397 -5.963,-0.522 l -4.448,-5.959 c -1.199,-1.607 -1.016,-3.844 0.413,-5.252 C -12.664,11.055 -8.841,6.338 -5.57,1.235 -4.363,-0.647 -1.876,-1.217 0,0"
             style="fill:#ffffff;fill-opacity:1;fill-rule:nonzero;stroke:none"
             id="path963" />
        </g>
        <g
           id="g965"
           transform="matrix(0.13663665,0,0,0.13663665,709.00077,952.49148)">
          <path
             d="m 0,0 7.302,1.627 c 2.129,0.475 3.496,2.57 3.062,4.707 -1.48,7.279 -3.783,14.259 -6.809,20.837 -1.014,2.205 -3.77,2.974 -5.806,1.653 l -6.347,-4.116 c -1.655,-1.073 -2.27,-3.186 -1.472,-4.991 C -7.749,14.466 -5.969,8.925 -4.805,3.163 -4.356,0.946 -2.208,-0.492 0,0"
             style="fill:#ffffff;fill-opacity:1;fill-rule:nonzero;stroke:none"
             id="path967" />
        </g>
        <g
           id="g969"
           transform="matrix(0.13663665,0,0,0.13663665,698.34799,961.75841)">
          <path
             d="m 0,0 c 5.541,-0.422 10.926,-1.403 16.102,-2.888 2.064,-0.593 4.228,0.525 4.912,2.561 l 2.284,6.795 c 0.725,2.157 -0.484,4.502 -2.672,5.125 -6.446,1.836 -13.168,3.013 -20.092,3.458 -2.298,0.147 -4.239,-1.7 -4.239,-4.004 V 3.984 C -3.705,1.89 -2.088,0.159 0,0"
             style="fill:#ffffff;fill-opacity:1;fill-rule:nonzero;stroke:none"
             id="path971" />
        </g>
        <g
           id="g973"
           transform="matrix(0.13663665,0,0,0.13663665,689.90873,939.38837)">
          <path
             d="m 0,0 c -3.129,4.481 -6,9.231 -8.595,14.193 -1.169,2.236 -4.076,2.858 -6.046,1.283 l -5.198,-4.157 c -1.513,-1.21 -1.933,-3.324 -1.024,-5.034 3.155,-5.941 6.651,-11.569 10.446,-16.803 1.652,-2.278 5.057,-2.234 6.607,0.116 l 3.898,5.906 c 0.9,1.364 0.863,3.134 -0.072,4.474 C 0.01,-0.015 0.005,-0.008 0,0"
             style="fill:#ffffff;fill-opacity:1;fill-rule:nonzero;stroke:none"
             id="path975" />
        </g>
        <g
           id="g977"
           transform="matrix(0.13663665,0,0,0.13663665,706.25382,941.30288)">
          <path
             d="m 0,0 c -2.613,-4.984 -5.488,-9.733 -8.681,-14.273 -0.941,-1.338 -0.943,-3.124 -0.042,-4.49 l 4.343,-6.581 c 1.522,-2.306 4.892,-2.432 6.536,-0.211 3.927,5.304 7.542,11.025 10.802,17.08 0.923,1.713 0.507,3.84 -1.013,5.055 L 6.055,1.291 C 4.082,2.869 1.173,2.238 0,0"
             style="fill:#ffffff;fill-opacity:1;fill-rule:nonzero;stroke:none"
             id="path979" />
        </g>
        <g
           id="g981"
           transform="matrix(0.13663665,0,0,0.13663665,686.43671,950.73055)">
          <path
             d="m 0,0 c 0,1.182 0.031,2.357 0.087,3.525 0.095,1.961 -1.21,3.712 -3.126,4.14 l -6.43,1.432 c -2.399,0.535 -4.737,-1.195 -4.87,-3.649 -0.248,-4.538 -0.181,-9.13 0.062,-13.677 0.119,-2.227 2.045,-3.922 4.27,-3.773 l 6.473,0.433 c 2.18,0.146 3.839,2.012 3.726,4.194 C 0.065,-4.916 0,-2.456 0,0"
             style="fill:#ffffff;fill-opacity:1;fill-rule:nonzero;stroke:none"
             id="path983" />
        </g>
        <g
           id="g985"
           transform="matrix(0.13663665,0,0,0.13663665,687.16566,955.84695)">
          <path
             d="m 0,0 -5.581,3.619 c -2.045,1.327 -4.816,0.545 -5.817,-1.679 -2.915,-6.468 -5.133,-13.318 -6.56,-20.453 -0.427,-2.134 0.94,-4.22 3.064,-4.694 l 6.349,-1.415 c 2.209,-0.492 4.359,0.949 4.805,3.168 1.156,5.741 2.921,11.264 5.225,16.499 C 2.273,-3.163 1.643,-1.066 0,0"
             style="fill:#ffffff;fill-opacity:1;fill-rule:nonzero;stroke:none"
             id="path987" />
        </g>
        <g
           id="g989"
           transform="matrix(0.13663665,0,0,0.13663665,688.17395,956.67077)">
          <path
             d="m 0,0 c 3.248,5.089 7.042,9.796 11.309,14.028 1.421,1.41 1.602,3.641 0.404,5.245 L 7.687,24.668 C 6.245,26.6 3.419,26.846 1.695,25.162 -3.62,19.969 -8.335,14.166 -12.334,7.863 -13.51,6.01 -12.964,3.55 -11.123,2.355 l 5.548,-3.597 C -3.696,-2.461 -1.205,-1.888 0,0"
             style="fill:#ffffff;fill-opacity:1;fill-rule:nonzero;stroke:none"
             id="path991" />
        </g>
        <g
           id="g993"
           transform="matrix(0.13663665,0,0,0.13663665,708.41973,945.73836)">
          <path
             d="m 0,0 7.046,-2.715 c 2.281,-0.879 4.811,0.474 5.354,2.858 1.108,4.865 2.004,9.804 2.676,14.789 0.311,2.304 -1.384,4.397 -3.704,4.552 L 3.898,19.985 C 1.811,20.125 -0.043,18.637 -0.328,16.565 -0.883,12.536 -1.604,8.529 -2.478,4.562 -2.9,2.643 -1.834,0.706 0,0"
             style="fill:#ffffff;fill-opacity:1;fill-rule:nonzero;stroke:none"
             id="path995" />
        </g>
        <g
           id="g997"
           transform="matrix(0.13663665,0,0,0.13663665,709.99159,952.01251)">
          <path
             d="m 0,0 -7.423,-1.654 c -1.898,-0.423 -3.212,-2.148 -3.121,-4.09 0.169,-3.657 0.097,-7.338 -0.099,-11.006 -0.117,-2.192 1.537,-4.074 3.727,-4.221 l 7.468,-0.5 c 2.225,-0.149 4.151,1.546 4.271,3.773 0.252,4.674 0.318,9.396 0.048,14.059 C 4.729,-1.189 2.395,0.534 0,0"
             style="fill:#ffffff;fill-opacity:1;fill-rule:nonzero;stroke:none"
             id="path999" />
        </g>
        <g
           id="g1001"
           transform="matrix(0.13663665,0,0,0.13663665,707.63907,944.68117)">
          <path
             d="m 0,0 c -1.354,-4.396 -2.898,-8.714 -4.633,-12.922 -0.678,-1.645 -0.163,-3.542 1.227,-4.653 l 6.002,-4.8 c 2.061,-1.648 5.138,-0.894 6.181,1.531 2.19,5.092 4.142,10.356 5.834,15.75 0.636,2.026 -0.396,4.199 -2.377,4.963 L 5.258,2.556 C 3.095,3.389 0.682,2.216 0,0"
             style="fill:#ffffff;fill-opacity:1;fill-rule:nonzero;stroke:none"
             id="path1003" />
        </g>
        <g
           id="g1005"
           transform="matrix(0.13663665,0,0,0.13663665,703.95229,937.94207)">
          <path
             d="m 0,0 c -4.63,-5.185 -9.511,-9.589 -14.568,-13.167 -1.373,-0.971 -1.978,-2.701 -1.528,-4.32 l 2.04,-7.341 c 0.728,-2.616 3.794,-3.769 6.064,-2.278 6.404,4.205 12.441,9.377 18.018,15.342 1.273,1.363 1.466,3.414 0.439,4.97 L 6.304,-0.486 C 4.865,1.694 1.74,1.948 0,0"
             style="fill:#ffffff;fill-opacity:1;fill-rule:nonzero;stroke:none"
             id="path1007" />
        </g>
        <g
           id="g1009"
           transform="matrix(0.13663665,0,0,0.13663665,693.00648,936.16593)">
          <path
             d="m 0,0 c -5.033,3.591 -9.888,8 -14.494,13.185 -1.738,1.957 -4.869,1.707 -6.311,-0.478 l -3.75,-5.683 c -1.019,-1.544 -0.838,-3.577 0.411,-4.94 5.464,-5.964 11.378,-11.168 17.657,-15.436 2.266,-1.54 5.379,-0.394 6.113,2.247 l 1.888,6.793 C 1.963,-2.697 1.364,-0.974 0,0"
             style="fill:#ffffff;fill-opacity:1;fill-rule:nonzero;stroke:none"
             id="path1011" />
        </g>
        <g
           id="g1013"
           transform="matrix(0.13663665,0,0,0.13663665,697.22026,933.16367)">
          <path
             d="m 0,0 -0.026,6.934 c -0.008,2.025 -1.506,3.769 -3.518,4 -5.531,0.632 -11.007,2.2 -16.353,4.652 -2.241,1.027 -4.868,-0.185 -5.528,-2.56 l -1.83,-6.583 c -0.528,-1.9 0.401,-3.914 2.199,-4.724 6.585,-2.968 13.468,-4.928 20.565,-5.714 C -2.095,-4.261 0.009,-2.411 0,0"
             style="fill:#ffffff;fill-opacity:1;fill-rule:nonzero;stroke:none"
             id="path1015" />
        </g>
        <g
           id="g1017"
           transform="matrix(0.13663665,0,0,0.13663665,686.91647,946.37591)">
          <path
             d="m 0,0 c -0.865,3.94 -1.58,7.918 -2.13,11.918 -0.285,2.072 -2.139,3.561 -4.226,3.421 l -6.485,-0.435 c -2.319,-0.155 -4.014,-2.245 -3.705,-4.548 0.651,-4.856 1.515,-9.669 2.58,-14.412 0.536,-2.389 3.071,-3.746 5.356,-2.866 l 6.132,2.362 C -0.644,-3.854 0.421,-1.919 0,0"
             style="fill:#ffffff;fill-opacity:1;fill-rule:nonzero;stroke:none"
             id="path1019" />
        </g>
        <g
           id="g1021"
           transform="matrix(0.13663665,0,0,0.13663665,686.63906,945.04465)">
          <path
             d="m 0,0 -6.084,-2.345 c -1.977,-0.76 -3.01,-2.926 -2.382,-4.949 1.637,-5.276 3.521,-10.429 5.634,-15.42 1.033,-2.438 4.122,-3.204 6.189,-1.55 l 5.271,4.215 c 1.385,1.107 1.899,2.996 1.226,4.636 -1.72,4.187 -3.252,8.482 -4.595,12.854 C 4.578,-0.342 2.164,0.833 0,0"
             style="fill:#ffffff;fill-opacity:1;fill-rule:nonzero;stroke:none"
             id="path1023" />
        </g>
        <g
           id="g1025"
           transform="matrix(0.13663665,0,0,0.13663665,700.46979,935.27953)">
          <path
             d="m 0,0 c -5.001,-2.269 -10.115,-3.76 -15.28,-4.441 -2.016,-0.266 -3.538,-1.952 -3.531,-3.986 l 0.027,-7.099 c 0.009,-2.392 2.098,-4.227 4.476,-3.967 6.703,0.732 13.214,2.514 19.465,5.201 1.833,0.788 2.789,2.826 2.255,4.748 l -1.935,6.96 C 4.823,-0.23 2.225,1.009 0,0"
             style="fill:#ffffff;fill-opacity:1;fill-rule:nonzero;stroke:none"
             id="path1027" />
        </g>
        <g
           id="g1029"
           transform="matrix(0.13663665,0,0,0.13663665,694.41688,961.35345)">
          <path
             d="m 0,0 c 5.256,1.528 10.729,2.535 16.364,2.964 2.088,0.159 3.703,1.89 3.703,3.984 v 6.992 c 0,2.321 -1.968,4.175 -4.282,4.002 C 8.789,17.417 2.002,16.141 -4.496,14.196 -6.656,13.549 -7.837,11.223 -7.118,9.085 L -4.924,2.558 C -4.238,0.517 -2.067,-0.601 0,0"
             style="fill:#ffffff;fill-opacity:1;fill-rule:nonzero;stroke:none"
             id="path1031" />
        </g>
        <g
           id="g1033"
           transform="matrix(0.13663665,0,0,0.13663665,697.54805,964.4882)">
          <path
             d="m 0,0 c 6.635,0 13.12,-0.649 19.399,-1.878 1.433,-0.28 2.876,0.428 3.473,1.76 1.761,3.936 4.628,12.986 3.43,28.563 C 24.682,49.521 10.557,62.107 0.827,63.055 0.668,63.095 0.505,63.12 0.335,63.12 0.226,63.12 0.111,63.109 0,63.106 c -0.111,0.003 -0.225,0.014 -0.335,0.014 -0.17,0 -0.332,-0.025 -0.491,-0.065 -9.73,-0.948 -23.855,-13.534 -25.476,-34.61 -1.198,-15.577 1.669,-24.627 3.431,-28.563 0.596,-1.332 2.04,-2.04 3.472,-1.76 C -13.119,-0.649 -6.634,0 0,0"
             style="fill:#ffffff;fill-opacity:1;fill-rule:nonzero;stroke:none"
             id="path1035" />
        </g>
        <g
           id="g1037"
           transform="matrix(0.13663665,0,0,0.13663665,689.0278,961.5522)">
          <path
             d="m 0,0 c -13.985,-11.006 -24.991,-25.621 -31.619,-42.424 -4.089,4.318 -7.357,9.926 -8.457,17.133 -3.748,24.491 7.537,33.738 16.644,36.237 C -16.234,12.925 -4.689,10.306 0,0"
             style="fill:#ffffff;fill-opacity:1;fill-rule:nonzero;stroke:none"
             id="path1039" />
        </g>
        <g
           id="g1041"
           transform="matrix(0.13663665,0,0,0.13663665,689.48121,935.64581)">
          <path
             d="m 0,0 c -4.838,-2.409 -10.316,-2.759 -14.405,-1.64 -9.096,2.499 -20.383,11.746 -16.634,36.237 0.52,3.349 1.49,6.358 2.799,9.047 4.229,-9.926 9.367,-19.303 15.325,-27.84 C -8.847,9.986 -4.528,4.708 0,0"
             style="fill:#ffffff;fill-opacity:1;fill-rule:nonzero;stroke:none"
             id="path1043" />
        </g>
        <g
           id="g1045"
           transform="matrix(0.13663665,0,0,0.13663665,711.58506,958.09657)">
          <path
             d="M 0,0 C -1.12,-7.328 -4.478,-13.006 -8.677,-17.354 -15.254,-0.55 -26.21,14.084 -40.146,25.11 -35.517,35.567 -23.881,38.226 -16.644,36.237 -7.537,33.737 3.749,24.491 0,0"
             style="fill:#ffffff;fill-opacity:1;fill-rule:nonzero;stroke:none"
             id="path1047" />
        </g>
        <g
           id="g1049"
           transform="matrix(0.13663665,0,0,0.13663665,707.66643,935.42176)">
          <path
             d="m 0,0 c -4.199,-1.159 -9.876,-0.75 -14.815,1.839 4.458,4.658 8.707,9.867 12.715,15.604 6.088,8.717 11.327,18.324 15.595,28.481 1.489,-2.85 2.589,-6.069 3.138,-9.688 C 20.382,11.746 9.096,2.499 0,0"
             style="fill:#ffffff;fill-opacity:1;fill-rule:nonzero;stroke:none"
             id="path1051" />
        </g>
      </g>
    </g>
  </g>
</svg>
