<?xml version="1.0" encoding="UTF-8" standalone="no"?>
<!-- Created with Inkscape (http://www.inkscape.org/) -->

<svg
   width="302"
   height="64"
   viewBox="0 0 79.904165 16.933333"
   version="1.1"
   id="svg1087"
   inkscape:version="1.1.2 (b8e25be8, 2022-02-05)"
   sodipodi:docname="dessin-1.svg"
   xmlns:inkscape="http://www.inkscape.org/namespaces/inkscape"
   xmlns:sodipodi="http://sodipodi.sourceforge.net/DTD/sodipodi-0.dtd"
   xmlns="http://www.w3.org/2000/svg"
   xmlns:svg="http://www.w3.org/2000/svg">
  <sodipodi:namedview
     id="namedview1089"
     pagecolor="#505050"
     bordercolor="#eeeeee"
     borderopacity="1"
     inkscape:pageshadow="0"
     inkscape:pageopacity="0"
     inkscape:pagecheckerboard="0"
     inkscape:document-units="mm"
     showgrid="false"
     inkscape:zoom="1.989935"
     inkscape:cx="108.54626"
     inkscape:cy="135.93409"
     inkscape:window-width="1323"
     inkscape:window-height="969"
     inkscape:window-x="321"
     inkscape:window-y="70"
     inkscape:window-maximized="0"
     inkscape:current-layer="g916"
     height="64mm"
     units="px" />
  <defs
     id="defs1084">
    <clipPath
       clipPathUnits="userSpaceOnUse"
       id="clipPath920">
      <path
         d="M 0,1080 H 1920 V 0 H 0 Z"
         id="path918" />
    </clipPath>
  </defs>
  <g
     inkscape:label="Calque 1"
     inkscape:groupmode="layer"
     id="layer1">
    <g
       id="g914"
       transform="matrix(0.35277777,0,0,-0.35277777,-278.18492,336.06374)">
      <g
         id="g916"
         clip-path="url(#clipPath920)">
        <g
           id="g1046"
           transform="matrix(0.59181256,0,0,0.59181256,788.92925,935.4662)">
          <path
             d="M 0,0 H 0.793 V -26.987 H 17.318 V -27.74 H 0 Z"
             style="fill:#2ebd6d;fill-opacity:1;fill-rule:nonzero;stroke:none"
             id="path1048" />
        </g>
        <g
           id="g1050"
           transform="matrix(0.59181256,0,0,0.59181256,800.89327,925.5689)">
          <path
             d="M 0,0 H 17.477 C 17.199,5.073 13.553,8.838 8.718,8.838 3.884,8.838 0.278,5.073 0,0 M 18.229,-0.753 H 0 c 0,-5.666 4.042,-9.63 9.472,-9.63 2.734,0 5.349,1.031 6.974,3.171 L 17,-7.767 c -1.822,-2.219 -4.596,-3.368 -7.528,-3.368 -5.906,0 -10.225,4.32 -10.225,10.382 0,6.064 4.042,10.344 9.471,10.344 5.39,0 9.511,-4.201 9.511,-10.146 z"
             style="fill:#2ebd6d;fill-opacity:1;fill-rule:nonzero;stroke:none"
             id="path1052" />
        </g>
        <g
           id="g1054"
           transform="matrix(0.59181256,0,0,0.59181256,880.53392,925.12333)">
          <path
             d="m 0,0 c 0,5.667 -3.923,9.591 -9.153,9.591 -5.232,0 -9.155,-3.924 -9.155,-9.591 0,-5.666 3.923,-9.63 9.155,-9.63 C -3.923,-9.63 0,-5.666 0,0 M 0.793,19.142 V -10.264 H 0 v 6.262 c -1.387,-3.884 -4.874,-6.38 -9.153,-6.38 -5.628,0 -9.948,4.32 -9.948,10.382 0,6.063 4.32,10.344 9.948,10.344 4.279,0 7.766,-2.497 9.153,-6.341 v 15.139 z"
             style="fill:#2ebd6d;fill-opacity:1;fill-rule:nonzero;stroke:none"
             id="path1056" />
        </g>
        <g
           id="g1058"
           transform="matrix(0.59181256,0,0,0.59181256,885.41582,925.5689)">
          <path
             d="M 0,0 H 17.477 C 17.199,5.073 13.554,8.838 8.718,8.838 3.883,8.838 0.277,5.073 0,0 M 18.229,-0.753 H 0 c 0,-5.666 4.042,-9.63 9.471,-9.63 2.734,0 5.35,1.031 6.975,3.171 L 17,-7.767 c -1.822,-2.219 -4.596,-3.368 -7.529,-3.368 -5.905,0 -10.224,4.32 -10.224,10.382 0,6.064 4.042,10.344 9.471,10.344 5.39,0 9.511,-4.201 9.511,-10.146 z"
             style="fill:#2ebd6d;fill-opacity:1;fill-rule:nonzero;stroke:none"
             id="path1060" />
        </g>
        <g
           id="g1062"
           transform="matrix(0.59181256,0,0,0.59181256,833.99112,928.387)">
          <path
             d="m 0,0 -12.446,-12.764 v -14.589 h -4.045 v 55.499 h 4.045 V -7.531 l 34.645,35.677 h 4.916 L 2.697,2.934 28.781,-27.353 h -4.916 z"
             style="fill:#2ebd6d;fill-opacity:1;fill-rule:nonzero;stroke:none"
             id="path1064" />
        </g>
        <path
           d="m 855.99512,936.69285 h 2.3459 V 912.1995 h -2.3459 z"
           style="fill:#2ebd6d;fill-opacity:1;fill-rule:nonzero;stroke:none;stroke-width:0.591813"
           id="path1066" />
        <g
           id="g1068"
           transform="matrix(0.59181256,0,0,0.59181256,907.10422,915.82252)">
          <path
             d="m 0,0 2.451,2.689 c 3.005,-4.507 7.275,-6.959 12.257,-6.959 7.353,0 10.99,4.191 10.99,13.048 V 44.202 H 0.715 v 3.637 H 29.731 V 8.778 C 29.731,-2.371 24.592,-7.906 14.708,-7.906 8.698,-7.906 3.163,-4.98 0,0"
             style="fill:#2ebd6d;fill-opacity:1;fill-rule:nonzero;stroke:none"
             id="path1070" />
        </g>
        <g
           id="g1072"
           transform="matrix(0.59181256,0,0,0.59181256,950.38892,918.58398)">
          <path
             d="m 0,0 v 7.749 h -14.074 c -8.54,0 -11.545,-3.558 -11.545,-8.303 0,-5.376 4.191,-8.697 11.466,-8.697 C -7.195,-9.251 -2.372,-5.93 0,0 M 3.954,13.996 V -12.177 H 0.158 v 7.353 c -2.609,-4.743 -7.669,-7.669 -14.865,-7.669 -9.251,0 -14.865,4.744 -14.865,11.781 0,6.246 3.953,11.545 15.419,11.545 H 0 v 3.321 c 0,7.669 -4.19,11.782 -12.256,11.782 -5.693,0 -10.832,-2.136 -14.232,-5.219 l -1.978,2.846 c 4.112,3.637 10.121,5.852 16.526,5.852 10.2,0 15.894,-5.219 15.894,-15.419"
             style="fill:#2ebd6d;fill-opacity:1;fill-rule:nonzero;stroke:none"
             id="path1074" />
        </g>
        <g
           id="g1076"
           transform="matrix(0.59181256,0,0,0.59181256,981.78672,923.59065)">
          <path
             d="m 0,0 c 0,10.358 -7.116,17.396 -16.604,17.396 -9.489,0 -16.605,-7.038 -16.605,-17.396 0,-10.357 7.116,-17.396 16.605,-17.396 C -7.116,-17.396 0,-10.357 0,0 M 3.954,38.034 V -20.637 H 0.079 v 9.726 c -3.241,-6.405 -9.488,-10.042 -16.921,-10.042 -11.624,0 -20.401,8.618 -20.401,20.953 0,12.415 8.777,20.955 20.401,20.955 7.354,0 13.521,-3.639 16.842,-9.884 v 26.963 z"
             style="fill:#2ebd6d;fill-opacity:1;fill-rule:nonzero;stroke:none"
             id="path1078" />
        </g>
        <g
           id="g1080"
           transform="matrix(0.59181256,0,0,0.59181256,993.67102,924.85464)">
          <path
             d="M 0,0 H 31.628 C 31.075,8.936 24.591,15.34 15.814,15.34 7.037,15.34 0.632,9.015 0,0 M 35.424,-3.084 H -0.079 c 0.395,-9.805 7.59,-16.447 17.475,-16.447 5.218,0 10.041,1.898 13.205,5.772 l 2.293,-2.609 c -3.638,-4.428 -9.331,-6.721 -15.578,-6.721 -12.493,0 -21.27,8.697 -21.27,20.953 0,12.257 8.46,20.955 19.768,20.955 11.308,0 19.689,-8.54 19.689,-20.797 0,-0.315 -0.079,-0.71 -0.079,-1.106"
             style="fill:#2ebd6d;fill-opacity:1;fill-rule:nonzero;stroke:none"
             id="path1082" />
        </g>
      </g>
    </g>
  </g>
</svg>
