<?xml version="1.0" encoding="UTF-8" standalone="no"?>
<!-- Generator: Adobe Illustrator 24.3.0, SVG Export Plug-In . SVG Version: 6.00 Build 0)  -->
<svg version="1.1" id="Calque_1" xmlns="http://www.w3.org/2000/svg" xmlns:xlink="http://www.w3.org/1999/xlink" x="0px" y="0px"
        viewBox="0 0 335 70" xml:space="preserve">   
<style
   type="text/css"
   id="style9">
	.st0{fill:#3F3E3E;}
	.st1{fill:none;}
	.st2{fill:#E20026;}
	.st3{fill:#FFFFFF;}
	.st4{fill:#707372;}
	.st5{fill:#007A4E;}
	.st6{fill:#3C3C3C;}
	.st7{fill:#464648;}
	.st8{fill:#E32119;}
	.st9{fill:#9CA47E;}
	.st10{fill:#F8AF39;}
	.st11{fill:#A67B94;}
	.st12{fill:#BBCE00;}
	.st13{fill:#2580C3;}
	.st14{fill:#D8EEF9;}
	.st15{fill:#00B3D4;}
	.st16{fill:#E20613;}
	.st17{fill:#1D1D1B;}
	.st18{fill:#20255F;}
	.st19{fill:#5D544F;}
	.st20{fill:#FFF000;}
	.st21{fill:#414445;}
	.st22{fill-rule:evenodd;clip-rule:evenodd;fill:#F8AA00;}
	.st23{fill-rule:evenodd;clip-rule:evenodd;fill:#FFFFFF;}
	.st24{fill-rule:evenodd;clip-rule:evenodd;fill:#1D1D1B;}
	.st25{fill:#1A1617;}
	.st26{fill:#002F5F;}
	.st27{fill:#D0A65A;}
	.st28{clip-path:url(#SVGID_4_);fill:#796A48;}
	.st29{clip-path:url(#SVGID_6_);fill:none;stroke:#796A48;stroke-width:0.283;stroke-miterlimit:3.864;}
	.st30{clip-path:url(#SVGID_8_);fill:#796A48;}
	.st31{clip-path:url(#SVGID_10_);fill:none;stroke:#796A48;stroke-width:0.283;stroke-miterlimit:3.864;}
	.st32{clip-path:url(#SVGID_12_);fill:#796A48;}
	.st33{clip-path:url(#SVGID_14_);fill:none;stroke:#796A48;stroke-width:0.283;stroke-miterlimit:3.864;}
	.st34{clip-path:url(#SVGID_16_);fill:#796A48;}
	.st35{clip-path:url(#SVGID_18_);fill:none;stroke:#796A48;stroke-width:0.283;stroke-miterlimit:3.864;}
	.st36{clip-path:url(#SVGID_20_);fill:#796A48;}
	.st37{clip-path:url(#SVGID_22_);fill:none;stroke:#796A48;stroke-width:0.283;stroke-miterlimit:3.864;}
	.st38{clip-path:url(#SVGID_24_);fill:#796A48;}
	.st39{clip-path:url(#SVGID_26_);fill:none;stroke:#796A48;stroke-width:0.283;stroke-miterlimit:3.864;}
	.st40{clip-path:url(#SVGID_28_);fill:#796A48;}
	.st41{clip-path:url(#SVGID_30_);fill:#796A48;}
	.st42{clip-path:url(#SVGID_32_);fill:#796A48;}
	.st43{clip-path:url(#SVGID_34_);fill:#796A48;}
	.st44{fill:#796A48;}
	.st45{fill:#888C8D;}
	.st46{fill:#1F1F1F;}
	.st47{fill:#BE1818;}
	.st48{opacity:0.94;}
	.st49{clip-path:url(#SVGID_36_);fill:#BE1818;}
	.st50{clip-path:url(#SVGID_38_);}
	.st51{clip-path:url(#SVGID_40_);}
	.st52{fill:#FFCB08;}
	.st53{clip-path:url(#SVGID_44_);fill:#FFCB08;}
	.st54{fill:#1A1C3A;}
	.st55{fill:#18103A;}
	.st56{fill:#997300;}
	.st57{fill:#545456;}
	.st58{fill:#EE2424;}
	.st59{fill:#D9956E;}
	.st60{fill:#0084CB;}
	.st61{fill:#C0AE00;}
	.st62{fill:#2B5034;}
	.st63{fill:#00A1DF;}
	.st64{fill:#474547;}
	.st65{fill:#AE0A3B;}
	.st66{fill:#AC9976;}
	.st67{fill:#35414C;}
	.st68{fill:#0592FF;}
	.st69{fill:#231F20;}
	.st70{fill:#432975;}
	.st71{fill:url(#SVGID_45_);}
	.st72{fill:#00D7B0;}
	.st73{fill:#949698;}
	.st74{fill:#221F1F;}
	.st75{fill:none;stroke:#231F20;stroke-width:0.75;stroke-miterlimit:10;}
	.st76{fill:#6AB023;}
	.st77{fill:#0065A6;}
	.st78{fill:#050033;}
	.st79{fill:#002B41;}
	.st80{fill:#7F8182;}
	.st81{fill:#909496;}
	.st82{fill:#291F1D;}
	.st83{fill:#130022;}
	.st84{fill:#43180B;}
	.st85{fill:#B7371F;}
	.st86{fill:#444444;}
	.st87{fill:#E35205;}
	.st88{clip-path:url(#XMLID_11_);fill:#D40F34;}
	.st89{fill:#D40F34;}
	.st90{clip-path:url(#XMLID_12_);fill:#E30137;}
	.st91{clip-path:url(#XMLID_13_);fill:#D40F34;}
</style>
<g
   id="g53">
	
	<path
   class="st68"
   d="m 220.75,69.15 c 19.8,0 35.8,-15.9 35.8,-35.3 V 2.25 h -6.2 v 31.6 c 0,16.1 -13.3,29.3 -29.7,29.3 -16.4,0 -29.7,-13.1 -29.7,-29.3 h -6 c 0,19.5 16.1,35.3 35.8,35.3"
   id="path13" />
	<path
   class="st68"
   d="m 220.75,57.15 c 13.1,0 23.7,-10.5 23.7,-23.4 V 2.15 h -6.2 v 31.6 c 0,9.5 -7.9,17.3 -17.5,17.3 -9.7,0 -17.5,-7.8 -17.5,-17.3 h -6.2 c 0,13 10.7,23.4 23.7,23.4"
   id="path15" />
	<path
   class="st68"
   d="m 220.75,45.25 c 6.4,0 11.6,-5.1 11.6,-11.4 V 2.25 h -6.2 v 31.6 c 0,2.9 -2.4,5.3 -5.4,5.3 -3,0 -5.4,-2.4 -5.4,-5.3 h -6.2 c 0.1,6.3 5.3,11.4 11.6,11.4"
   id="path17" />
	<polygon
   class="st68"
   points="153.4,100.5 167.9,139.6 171.7,150 175.6,139.6 171.7,129.2 161.2,100.5 "
   id="polygon19"
   transform="translate(-138.05,-98.35)" />
	<polygon
   class="st68"
   points="170.3,164.4 146.9,100.5 139,100.5 162.7,164.4 "
   id="polygon21"
   transform="translate(-138.05,-98.35)" />
	<polygon
   class="st68"
   points="193.3,109.6 189.4,120.1 186.1,129.1 182.3,139.5 173.1,164.4 180.7,164.4 186.1,149.8 190,139.5 193.3,130.5 196.6,139.5 200.5,149.8 205.9,164.4 213.4,164.4 204.3,139.5 200.5,129.1 197.2,120.1 "
   id="polygon23"
   transform="translate(-138.05,-98.35)" />
	<polygon
   class="st68"
   points="216.3,164.4 223.8,164.4 247.5,100.5 239.7,100.5 "
   id="polygon25"
   transform="translate(-138.05,-98.35)" />
	<polygon
   class="st68"
   points="204.4,100.5 204.3,100.5 196.5,100.5 196.5,100.7 200.5,111.2 203.7,120.1 207.6,130.5 211,139.6 214.8,150 218.7,139.6 214.8,129.2 211.5,120.1 207.6,109.6 204.4,100.7 "
   id="polygon27"
   transform="translate(-138.05,-98.35)" />
	<polygon
   class="st68"
   points="176.3,100.5 168.6,100.5 175.2,118.3 179,128.6 182.8,118.3 179,107.9 "
   id="polygon29"
   transform="translate(-138.05,-98.35)" />
	<polygon
   class="st68"
   points="225.9,118.3 222.1,107.9 219.4,100.5 211.7,100.5 214.9,109.2 218.3,118.3 222.1,128.6 "
   id="polygon31"
   transform="translate(-138.05,-98.35)" />
	<g
   id="g41"
   transform="translate(-138.05,-98.35)">
		<path
   class="st1"
   d="m 281.8,106 c -14.8,0 -26.8,12 -26.8,26.8 0,14.8 12,26.8 26.8,26.8 14.8,0 26.8,-12 26.8,-26.8 0,-14.8 -12,-26.8 -26.8,-26.8 z m 0,46.8 c -11.1,0 -20.1,-9 -20.1,-20.1 0,-11.1 9,-20.1 20.1,-20.1 11.1,0 20.1,9 20.1,20.1 0,11.1 -9,20.1 -20.1,20.1 z"
   id="path33" />
		<path
   class="st68"
   d="m 281.8,99.2 c -18.5,0 -33.5,15 -33.5,33.5 0,18.5 15,33.5 33.5,33.5 18.5,0 33.5,-15 33.5,-33.5 0,-18.5 -15,-33.5 -33.5,-33.5 z m 0,60.3 c -14.8,0 -26.8,-12 -26.8,-26.8 0,-14.8 12,-26.8 26.8,-26.8 14.8,0 26.8,12 26.8,26.8 0,14.8 -12,26.8 -26.8,26.8 z"
   id="path35" />
		<path
   class="st68"
   d="m 281.8,112.7 c -11.1,0 -20.1,9 -20.1,20.1 0,11.1 9,20.1 20.1,20.1 11.1,0 20.1,-9 20.1,-20.1 0,-11.1 -9,-20.1 -20.1,-20.1 z m 0,33.4 c -7.4,0 -13.3,-6 -13.3,-13.3 0,-7.4 6,-13.3 13.3,-13.3 7.3,0 13.3,6 13.3,13.3 0,7.3 -5.9,13.3 -13.3,13.3 z"
   id="path37" />
		<path
   class="st68"
   d="m 281.8,126.9 c -3.3,0 -6,2.6 -6,5.9 0,3.3 2.7,5.9 6,5.9 3.3,0 6,-2.6 6,-5.9 0,-3.3 -2.7,-5.9 -6,-5.9 z"
   id="path39" />
	</g>
	<g
   id="g51"
   transform="translate(-138.05,-98.35)">
		<path
   class="st1"
   d="m 438.6,106 c -14.8,0 -26.8,12 -26.8,26.8 0,14.8 12,26.8 26.8,26.8 14.8,0 26.8,-12 26.8,-26.8 0,-14.8 -12,-26.8 -26.8,-26.8 z m 0,46.8 c -11.1,0 -20.1,-9 -20.1,-20.1 0,-11.1 9,-20.1 20.1,-20.1 11.1,0 20.1,9 20.1,20.1 0,11.1 -9.1,20.1 -20.1,20.1 z"
   id="path43" />
		<path
   class="st68"
   d="m 438.6,99.2 c -18.5,0 -33.5,15 -33.5,33.5 0,18.5 15,33.5 33.5,33.5 18.5,0 33.5,-15 33.5,-33.5 0,-18.5 -15,-33.5 -33.5,-33.5 z m 0,60.3 c -14.8,0 -26.8,-12 -26.8,-26.8 0,-14.8 12,-26.8 26.8,-26.8 14.8,0 26.8,12 26.8,26.8 0,14.8 -12,26.8 -26.8,26.8 z"
   id="path45" />
		<path
   class="st68"
   d="m 438.6,112.7 c -11.1,0 -20.1,9 -20.1,20.1 0,11.1 9,20.1 20.1,20.1 11.1,0 20.1,-9 20.1,-20.1 0,-11.1 -9.1,-20.1 -20.1,-20.1 z m 0,33.4 c -7.4,0 -13.3,-6 -13.3,-13.3 0,-7.4 6,-13.3 13.3,-13.3 7.3,0 13.3,6 13.3,13.3 0,7.3 -6,13.3 -13.3,13.3 z"
   id="path47" />
		<path
   class="st68"
   d="m 438.6,126.9 c -3.3,0 -6,2.6 -6,5.9 0,3.3 2.7,5.9 6,5.9 3.3,0 6,-2.6 6,-5.9 -0.1,-3.3 -2.7,-5.9 -6,-5.9 z"
   id="path49" />
	</g>
</g>
</svg>
