<?xml version="1.0" encoding="utf-8"?>
<!-- Generator: Adobe Illustrator 24.3.0, SVG Export Plug-In . SVG Version: 6.00 Build 0)  -->
<svg version="1.1" id="Calque_1" xmlns="http://www.w3.org/2000/svg" xmlns:xlink="http://www.w3.org/1999/xlink" x="0px" y="0px"
	 viewBox="0 0 611.1 265.5" style="enable-background:new 0 0 611.1 265.5;" xml:space="preserve">
<style type="text/css">
	.st0{fill:#3F3E3E;}
	.st1{fill:none;}
	.st2{fill:#E20026;}
	.st3{fill:#FFFFFF;}
	.st4{fill:#707372;}
	.st5{fill:#007A4E;}
	.st6{fill:#3C3C3C;}
	.st7{fill:#464648;}
	.st8{fill:#E32119;}
	.st9{fill:#9CA47E;}
	.st10{fill:#F8AF39;}
	.st11{fill:#A67B94;}
	.st12{fill:#BBCE00;}
	.st13{fill:#2580C3;}
	.st14{fill:#D8EEF9;}
	.st15{fill:#00B3D4;}
	.st16{fill:#E20613;}
	.st17{fill:#1D1D1B;}
	.st18{fill:#20255F;}
	.st19{fill:#5D544F;}
	.st20{fill:#FFF000;}
	.st21{fill:#414445;}
	.st22{fill-rule:evenodd;clip-rule:evenodd;fill:#F8AA00;}
	.st23{fill-rule:evenodd;clip-rule:evenodd;fill:#FFFFFF;}
	.st24{fill-rule:evenodd;clip-rule:evenodd;fill:#1D1D1B;}
	.st25{fill:#1A1617;}
	.st26{fill:#002F5F;}
	.st27{fill:#D0A65A;}
	.st28{clip-path:url(#SVGID_4_);fill:#796A48;}
	.st29{clip-path:url(#SVGID_6_);fill:none;stroke:#796A48;stroke-width:0.283;stroke-miterlimit:3.864;}
	.st30{clip-path:url(#SVGID_8_);fill:#796A48;}
	.st31{clip-path:url(#SVGID_10_);fill:none;stroke:#796A48;stroke-width:0.283;stroke-miterlimit:3.864;}
	.st32{clip-path:url(#SVGID_12_);fill:#796A48;}
	.st33{clip-path:url(#SVGID_14_);fill:none;stroke:#796A48;stroke-width:0.283;stroke-miterlimit:3.864;}
	.st34{clip-path:url(#SVGID_16_);fill:#796A48;}
	.st35{clip-path:url(#SVGID_18_);fill:none;stroke:#796A48;stroke-width:0.283;stroke-miterlimit:3.864;}
	.st36{clip-path:url(#SVGID_20_);fill:#796A48;}
	.st37{clip-path:url(#SVGID_22_);fill:none;stroke:#796A48;stroke-width:0.283;stroke-miterlimit:3.864;}
	.st38{clip-path:url(#SVGID_24_);fill:#796A48;}
	.st39{clip-path:url(#SVGID_26_);fill:none;stroke:#796A48;stroke-width:0.283;stroke-miterlimit:3.864;}
	.st40{clip-path:url(#SVGID_28_);fill:#796A48;}
	.st41{clip-path:url(#SVGID_30_);fill:#796A48;}
	.st42{clip-path:url(#SVGID_32_);fill:#796A48;}
	.st43{clip-path:url(#SVGID_34_);fill:#796A48;}
	.st44{fill:#796A48;}
	.st45{fill:#888C8D;}
	.st46{fill:#1F1F1F;}
	.st47{fill:#BE1818;}
	.st48{opacity:0.94;}
	.st49{clip-path:url(#SVGID_36_);fill:#BE1818;}
	.st50{clip-path:url(#SVGID_38_);}
	.st51{clip-path:url(#SVGID_40_);}
	.st52{fill:#FFCB08;}
	.st53{clip-path:url(#SVGID_44_);fill:#FFCB08;}
	.st54{fill:#1A1C3A;}
	.st55{fill:#18103A;}
	.st56{fill:#997300;}
	.st57{fill:#545456;}
	.st58{fill:#EE2424;}
	.st59{fill:#D9956E;}
	.st60{fill:#0084CB;}
	.st61{fill:#C0AE00;}
	.st62{fill:#2B5034;}
	.st63{fill:#00A1DF;}
	.st64{fill:#474547;}
	.st65{fill:#AE0A3B;}
	.st66{fill:#AC9976;}
	.st67{fill:#35414C;}
	.st68{fill:#0592FF;}
	.st69{fill:#231F20;}
	.st70{fill:#432975;}
	.st71{fill:url(#SVGID_45_);}
	.st72{fill:#00D7B0;}
	.st73{fill:#949698;}
	.st74{fill:#221F1F;}
	.st75{fill:none;stroke:#231F20;stroke-width:0.75;stroke-miterlimit:10;}
	.st76{fill:#6AB023;}
	.st77{fill:#0065A6;}
	.st78{fill:#050033;}
	.st79{fill:#002B41;}
	.st80{fill:#7F8182;}
	.st81{fill:#909496;}
	.st82{fill:#291F1D;}
	.st83{fill:#130022;}
	.st84{fill:#43180B;}
	.st85{fill:#B7371F;}
	.st86{fill:#444444;}
	.st87{fill:#E35205;}
	.st88{clip-path:url(#XMLID_11_);fill:#D40F34;}
	.st89{fill:#D40F34;}
	.st90{clip-path:url(#XMLID_12_);fill:#E30137;}
	.st91{clip-path:url(#XMLID_13_);fill:#D40F34;}
</style>
<g>
	<rect x="72" y="32.2" class="st1" width="467.1" height="201.1"/>
	<path class="st68" d="M358.8,167.5c19.8,0,35.8-15.9,35.8-35.3v-31.6h-6.2v31.6c0,16.1-13.3,29.3-29.7,29.3
		c-16.4,0-29.7-13.1-29.7-29.3H323C323,151.7,339.1,167.5,358.8,167.5"/>
	<path class="st68" d="M358.8,155.5c13.1,0,23.7-10.5,23.7-23.4v-31.6h-6.2v31.6c0,9.5-7.9,17.3-17.5,17.3
		c-9.7,0-17.5-7.8-17.5-17.3h-6.2C335.1,145.1,345.8,155.5,358.8,155.5"/>
	<path class="st68" d="M358.8,143.6c6.4,0,11.6-5.1,11.6-11.4v-31.6h-6.2v31.6c0,2.9-2.4,5.3-5.4,5.3c-3,0-5.4-2.4-5.4-5.3h-6.2
		C347.3,138.5,352.5,143.6,358.8,143.6"/>
	<polygon class="st68" points="171.7,150 175.6,139.6 171.7,129.2 161.2,100.5 153.4,100.5 167.9,139.6 	"/>
	<polygon class="st68" points="139,100.5 162.7,164.4 170.3,164.4 146.9,100.5 	"/>
	<polygon class="st68" points="186.1,149.8 190,139.5 193.3,130.5 196.6,139.5 200.5,149.8 205.9,164.4 213.4,164.4 204.3,139.5 
		200.5,129.1 197.2,120.1 193.3,109.6 189.4,120.1 186.1,129.1 182.3,139.5 173.1,164.4 180.7,164.4 	"/>
	<polygon class="st68" points="247.5,100.5 239.7,100.5 216.3,164.4 223.8,164.4 	"/>
	<polygon class="st68" points="200.5,111.2 203.7,120.1 207.6,130.5 211,139.6 214.8,150 218.7,139.6 214.8,129.2 211.5,120.1 
		207.6,109.6 204.4,100.7 204.4,100.5 204.3,100.5 196.5,100.5 196.5,100.7 	"/>
	<polygon class="st68" points="175.2,118.3 179,128.6 182.8,118.3 179,107.9 176.3,100.5 168.6,100.5 	"/>
	<polygon class="st68" points="214.9,109.2 218.3,118.3 222.1,128.6 225.9,118.3 222.1,107.9 219.4,100.5 211.7,100.5 	"/>
	<g>
		<path class="st1" d="M281.8,106c-14.8,0-26.8,12-26.8,26.8s12,26.8,26.8,26.8c14.8,0,26.8-12,26.8-26.8S296.6,106,281.8,106z
			 M281.8,152.8c-11.1,0-20.1-9-20.1-20.1s9-20.1,20.1-20.1s20.1,9,20.1,20.1S292.9,152.8,281.8,152.8z"/>
		<path class="st68" d="M281.8,99.2c-18.5,0-33.5,15-33.5,33.5s15,33.5,33.5,33.5c18.5,0,33.5-15,33.5-33.5S300.3,99.2,281.8,99.2z
			 M281.8,159.5c-14.8,0-26.8-12-26.8-26.8s12-26.8,26.8-26.8c14.8,0,26.8,12,26.8,26.8S296.6,159.5,281.8,159.5z"/>
		<path class="st68" d="M281.8,112.7c-11.1,0-20.1,9-20.1,20.1s9,20.1,20.1,20.1s20.1-9,20.1-20.1S292.9,112.7,281.8,112.7z
			 M281.8,146.1c-7.4,0-13.3-6-13.3-13.3c0-7.4,6-13.3,13.3-13.3s13.3,6,13.3,13.3C295.1,140.1,289.2,146.1,281.8,146.1z"/>
		<path class="st68" d="M281.8,126.9c-3.3,0-6,2.6-6,5.9c0,3.3,2.7,5.9,6,5.9s6-2.6,6-5.9C287.8,129.5,285.1,126.9,281.8,126.9z"/>
	</g>
	<g>
		<path class="st1" d="M438.6,106c-14.8,0-26.8,12-26.8,26.8s12,26.8,26.8,26.8c14.8,0,26.8-12,26.8-26.8S453.4,106,438.6,106z
			 M438.6,152.8c-11.1,0-20.1-9-20.1-20.1s9-20.1,20.1-20.1s20.1,9,20.1,20.1S449.6,152.8,438.6,152.8z"/>
		<path class="st68" d="M438.6,99.2c-18.5,0-33.5,15-33.5,33.5s15,33.5,33.5,33.5c18.5,0,33.5-15,33.5-33.5S457.1,99.2,438.6,99.2z
			 M438.6,159.5c-14.8,0-26.8-12-26.8-26.8s12-26.8,26.8-26.8c14.8,0,26.8,12,26.8,26.8S453.4,159.5,438.6,159.5z"/>
		<path class="st68" d="M438.6,112.7c-11.1,0-20.1,9-20.1,20.1s9,20.1,20.1,20.1s20.1-9,20.1-20.1S449.6,112.7,438.6,112.7z
			 M438.6,146.1c-7.4,0-13.3-6-13.3-13.3c0-7.4,6-13.3,13.3-13.3s13.3,6,13.3,13.3C451.9,140.1,445.9,146.1,438.6,146.1z"/>
		<path class="st68" d="M438.6,126.9c-3.3,0-6,2.6-6,5.9c0,3.3,2.7,5.9,6,5.9s6-2.6,6-5.9C444.5,129.5,441.9,126.9,438.6,126.9z"/>
	</g>
</g>
</svg>
